<?xml version="1.0" standalone="no"?>
<!DOCTYPE svg PUBLIC "-//W3C//DTD SVG 1.1//EN" "http://www.w3.org/Graphics/SVG/1.1/DTD/svg11.dtd" >
<svg>
<metadata>
Created by FontForge 20120731 at Wed Apr 20 09:15:22 2016
 By www
Digitized data (c) Monotype Imaging. All rights reserved.
</metadata>
<defs>
<font id="BurinRomanStd" horiz-adv-x="519" >
  <font-face 
    font-family="Burin Roman Std"
    font-weight="400"
    font-stretch="normal"
    units-per-em="1000"
    panose-1="2 2 5 3 5 4 5 2 3 4"
    ascent="705"
    descent="-295"
    x-height="430"
    cap-height="685"
    bbox="-155 -370 1163 902"
    underline-thickness="50"
    underline-position="-50"
    stemh="28"
    stemv="78"
    unicode-range="U+0020-FB06"
  />
<missing-glyph horiz-adv-x="500" 
d="M12 0v665h475v-665h-475zM88 618l162 -243l161 243h-323zM60 575v-484c0 -1 161 242 161 242zM440 575l-162 -242l162 -243v485zM411 48l-161 242l-162 -242h323z" />
    <glyph glyph-name="fi" unicode="fi" horiz-adv-x="559" 
d="M546 13c0 -8 -3 -13 -9 -13h-22h-203h-13c-7 0 -11 5 -11 13c0 11 5 14 25 14h47c11 19 14 28 16 46c3 20 3 28 3 71v155c0 22 -2 43 -5 62c-3 18 -5 25 -15 42h-170v-264v-43c0 -10 1 -20 3 -30c3 -17 6 -24 17 -39h54c13 0 17 -3 17 -13c0 -11 -4 -14 -18 -14h-228
c-7 0 -12 6 -12 13c0 11 5 14 19 14h53c23 25 25 35 25 145v231h-51c-14 0 -20 4 -20 15c0 10 4 12 20 12h51v91c0 107 58 162 169 162c98 0 156 -41 156 -108c0 -38 -22 -66 -52 -66c-24 0 -41 16 -41 39c0 30 17 42 62 43v7c0 38 -50 62 -128 62c-20 0 -29 -1 -51 -6
c-15 -14 -20 -21 -29 -38c-13 -27 -16 -48 -16 -105v-81h224c24 0 28 -1 32 -7c4 -5 4 -7 4 -38v-250c0 -69 6 -95 26 -107h50c18 0 21 -3 21 -15z" />
    <glyph glyph-name="fl" unicode="fl" horiz-adv-x="555" 
d="M540 13c0 -9 -8 -13 -20 -13h-209c-12 0 -18 4 -18 13c0 11 6 15 18 15h25c39 10 40 45 40 104v383c-6 -3 -13 -5 -20 -5c-17 0 -40 15 -40 40c0 31 23 44 47 44c4 0 8 0 12 -1c-1 29 -7 38 -19 47c-18 13 -49 21 -79 21c-15 0 -44 -8 -55 -18c-18 -17 -35 -40 -35 -114
v-99h72c12 0 20 -4 20 -15c0 -9 -8 -13 -20 -13h-72v-270c0 -59 1 -94 40 -104h22c12 0 20 -4 20 -15c0 -9 -8 -13 -20 -13h-209c-12 0 -18 4 -18 13c0 11 6 15 18 15h35c39 10 40 45 40 104v270h-51c-12 0 -20 4 -20 13c0 11 8 15 20 15h51v93c0 102 58 162 163 162
c23 0 44 -4 61 -11c11 10 33 11 45 11h47c13 0 17 -7 17 -21v-532c0 -59 1 -94 40 -104h32c12 0 20 -4 20 -15z" />
    <glyph glyph-name=".notdef" horiz-adv-x="500" 
d="M12 0v665h475v-665h-475zM88 618l162 -243l161 243h-323zM60 575v-484c0 -1 161 242 161 242zM440 575l-162 -242l162 -243v485zM411 48l-161 242l-162 -242h323z" />
    <glyph glyph-name="space" unicode=" " horiz-adv-x="204" 
 />
    <glyph glyph-name="exclam" unicode="!" horiz-adv-x="204" 
d="M145 647c0 -57 -21 -240 -24 -300l-8 -187h-22l-8 187c-3 60 -24 243 -24 300c0 38 21 58 43 58s43 -20 43 -58zM145 28c0 -24 -19 -43 -43 -43s-43 19 -43 43s19 43 43 43s43 -19 43 -43z" />
    <glyph glyph-name="quotedbl" unicode="&#x22;" horiz-adv-x="315" 
d="M257 647c0 -22 -14 -102 -22 -138h-26c-10 53 -22 106 -22 138c0 36 13 58 35 58s35 -20 35 -58zM137 647c0 -22 -14 -102 -22 -138h-26c-10 53 -22 106 -22 138c0 36 13 58 35 58s35 -20 35 -58z" />
    <glyph glyph-name="numbersign" unicode="#" 
d="M497 440l-5 -33h-96l-30 -185h96l-5 -33h-96l-30 -204h-40l30 204h-142l-30 -204h-40l30 204h-96l5 33h96l30 185h-96l6 33h96l26 180h40l-27 -180h142l27 180h40l-27 -180h96zM356 407h-142l-30 -185h142z" />
    <glyph glyph-name="dollar" unicode="$" horiz-adv-x="500" 
d="M469 167c0 -148 -150 -167 -198 -167v-55c0 -22 0 -34 -14 -34c-13 0 -14 15 -14 32v57c-59 0 -111 21 -128 21c-25 0 -50 -21 -57 -21c-5 0 -5 7 -5 12v141c0 5 1 10 6 10c7 0 5 -26 29 -60c43 -59 137 -75 155 -75v247c-100 32 -194 54 -194 169c0 123 118 159 194 159
v25c0 19 2 27 14 27c13 0 14 -9 14 -27v-25c17 0 88 -23 101 -23c39 0 49 21 55 21c4 0 5 -4 5 -8v-129c0 -7 0 -15 -6 -15c-14 0 -9 17 -36 54c-39 53 -108 72 -119 72v-231c70 -23 198 -58 198 -177zM243 353v222c-64 -3 -137 -28 -137 -110c0 -71 68 -90 137 -112z
M406 143c0 80 -91 108 -135 123v-238c93 0 135 61 135 115z" />
    <glyph glyph-name="percent" unicode="%" horiz-adv-x="852" 
d="M791 185c0 -109 -38 -197 -150 -197s-150 88 -150 197c0 110 38 198 150 198s150 -88 150 -198zM642 705l-386 -723h-42l386 723h42zM363 506c0 -109 -38 -197 -150 -197s-150 88 -150 197c0 110 38 198 150 198s150 -88 150 -198zM721 185c0 113 -19 139 -33 155
c-8 10 -29 17 -47 17s-39 -7 -47 -17c-14 -16 -33 -42 -33 -155c0 -112 19 -138 33 -154c8 -10 29 -17 47 -17s39 7 47 17c14 16 33 42 33 154zM293 506c0 113 -19 139 -33 155c-8 10 -29 17 -47 17s-39 -7 -47 -17c-14 -16 -33 -42 -33 -155c0 -112 19 -138 33 -154
c8 -10 29 -17 47 -17s39 7 47 17c14 16 33 42 33 154z" />
    <glyph glyph-name="ampersand" unicode="&#x26;" horiz-adv-x="722" 
d="M713 51c0 -16 -54 -51 -116 -51c-80 0 -120 58 -137 93c-34 -60 -87 -113 -210 -113c-102 0 -180 88 -180 182c0 126 112 184 179 223c-35 19 -129 73 -129 160c0 118 83 160 176 160c99 0 171 -67 171 -149c0 -63 -45 -104 -58 -104c-5 0 -8 2 -8 10c0 12 24 26 24 85
c0 46 -17 83 -42 102c-23 17 -56 28 -88 28c-36 0 -67 -11 -85 -28c-21 -20 -28 -37 -28 -63c0 -98 71 -103 191 -190c74 -54 103 -148 124 -190c17 32 60 139 122 139c32 0 50 -20 50 -43c0 -15 -11 -43 -41 -43c-29 0 -42 22 -42 46c-37 -39 -52 -69 -76 -125
c21 -43 48 -132 143 -132c18 0 42 7 53 7c4 0 7 -1 7 -4zM447 119c-61 121 -58 168 -173 252c-95 -56 -128 -94 -128 -178c0 -90 63 -160 164 -160c21 0 43 4 62 14c17 8 54 34 75 72z" />
    <glyph glyph-name="quoteright" unicode="&#x2019;" horiz-adv-x="204" 
d="M152 651c0 -45 -38 -89 -68 -89c-6 0 -9 6 -9 11c0 10 31 9 31 42c-19 3 -47 18 -47 45c0 25 19 45 47 45c23 0 46 -23 46 -54z" />
    <glyph glyph-name="parenleft" unicode="(" horiz-adv-x="296" 
d="M286 -120l-13 -20c-101 57 -237 197 -237 422c0 226 136 366 237 423l13 -20c-68 -56 -183 -181 -183 -403c0 -221 115 -346 183 -402z" />
    <glyph glyph-name="parenright" unicode=")" horiz-adv-x="296" 
d="M260 283c0 -226 -136 -366 -237 -423l-13 20c68 56 183 181 183 403c0 221 -115 346 -183 402l13 20c101 -57 237 -197 237 -422z" />
    <glyph glyph-name="asterisk" unicode="*" horiz-adv-x="483" 
d="M429 547c0 -39 -75 -23 -176 -40c52 -56 124 -75 124 -116c0 -22 -31 -45 -51 -45c-30 0 -42 74 -84 152c-41 -78 -54 -152 -84 -152c-20 0 -51 23 -51 45c0 41 72 60 124 116c-101 17 -176 1 -176 40c0 26 7 56 35 56c33 0 85 -57 145 -84c-9 96 -33 119 -33 155
c0 12 4 31 40 31s40 -19 40 -31c0 -36 -24 -59 -33 -155c60 27 112 84 145 84c28 0 35 -30 35 -56z" />
    <glyph glyph-name="plus" unicode="+" 
d="M483 205h-199v-205h-48v205h-199v52h199v198h48v-198h199v-52z" />
    <glyph glyph-name="comma" unicode="," horiz-adv-x="204" 
d="M148 17c0 -45 -38 -89 -68 -89c-6 0 -9 6 -9 11c0 10 31 9 31 42c-19 3 -47 18 -47 45c0 25 19 45 47 45c23 0 46 -23 46 -54z" />
    <glyph glyph-name="hyphen" unicode="-" horiz-adv-x="278" 
d="M221 200h-164v45h164v-45z" />
    <glyph glyph-name="period" unicode="." horiz-adv-x="204" 
d="M146 28c0 -24 -19 -43 -43 -43s-43 19 -43 43s19 43 43 43s43 -19 43 -43z" />
    <glyph glyph-name="slash" unicode="/" horiz-adv-x="204" 
d="M182 685l-90 -700h-40l90 700h40z" />
    <glyph glyph-name="zero" unicode="0" 
d="M461 302c0 -176 -51 -317 -202 -317s-202 141 -202 317c0 177 51 318 202 318s202 -141 202 -318zM383 302c0 190 -29 234 -51 262c-13 16 -45 28 -73 28s-60 -12 -73 -28c-22 -28 -51 -72 -51 -262c0 -189 29 -233 51 -261c13 -16 45 -28 73 -28s60 12 73 28
c22 28 51 72 51 261z" />
    <glyph glyph-name="one" unicode="1" horiz-adv-x="315" 
d="M264 14c0 -10 -8 -14 -20 -14h-153c-12 0 -18 4 -18 14s6 14 18 14h17c26 15 27 43 27 114v318c0 59 0 98 -10 117h-28c-14 0 -24 2 -24 15c0 10 7 13 24 13h89c21 0 21 -7 21 -25v-438c0 -71 1 -99 27 -114h10c12 0 20 -4 20 -14z" />
    <glyph glyph-name="two" unicode="2" horiz-adv-x="500" 
d="M443 461c0 -123 -163 -145 -238 -212c-81 -73 -84 -101 -101 -177h242c35 12 39 25 51 25c5 0 9 -3 9 -9c0 -17 -28 -80 -45 -88h-254c-21 0 -32 0 -32 20c0 288 285 272 285 458c0 46 -15 70 -38 90c-15 13 -44 24 -78 24c-89 0 -162 -46 -162 -110c0 -14 7 -37 14 -37
c-3 3 -4 9 -4 13c0 18 13 33 37 33s39 -15 39 -37c0 -24 -19 -41 -49 -41c-40 0 -61 31 -61 69c0 85 90 138 186 138c123 0 199 -76 199 -159z" />
    <glyph glyph-name="three" unicode="3" horiz-adv-x="500" 
d="M433 475c0 -87 -95 -141 -175 -141c-19 0 -27 2 -27 12c1 7 10 7 25 9c26 3 50 8 64 17c19 11 37 49 37 90c0 48 -15 84 -36 102c-15 13 -37 28 -82 28c-71 0 -145 -39 -145 -94c0 -22 9 -28 18 -36c-3 5 -4 11 -4 15c0 9 9 31 36 31c23 0 40 -17 40 -40
c0 -25 -21 -46 -51 -46c-37 0 -63 30 -63 76c0 77 89 122 173 122c98 0 190 -52 190 -145zM451 162c0 -116 -107 -177 -220 -177c-105 0 -195 61 -195 155c0 45 25 73 57 73c31 0 49 -18 49 -44c0 -25 -16 -42 -39 -42c-15 0 -32 10 -39 22c-3 -5 -4 -11 -4 -17
c0 -71 88 -119 171 -119c43 0 65 9 80 18c29 17 64 71 64 142c0 94 -65 152 -65 156s1 7 6 7c30 0 135 -62 135 -174z" />
    <glyph glyph-name="four" unicode="4" horiz-adv-x="500" 
d="M475 161c0 -17 0 -22 -13 -22h-87c0 -69 1 -96 27 -111h28c15 0 21 -4 21 -14s-8 -14 -21 -14h-183c-13 0 -21 4 -21 14s6 14 21 14h30c25 15 26 42 26 111h-252c-28 0 -31 4 -31 13c0 8 6 16 11 24l255 423c9 14 17 21 26 21h45c15 0 18 -4 18 -28v-425h34
c31 17 47 64 57 64c6 0 9 -2 9 -8v-62zM303 167v406l-247 -406h247z" />
    <glyph glyph-name="five" unicode="5" horiz-adv-x="500" 
d="M463 185c0 -113 -83 -200 -245 -200c-100 0 -161 46 -161 113c0 40 22 67 55 67c24 0 41 -17 41 -39c0 -26 -15 -40 -38 -40c-12 0 -23 7 -32 18c-2 -7 -2 -11 -2 -15c0 -33 52 -76 137 -76c30 0 65 7 91 24c37 24 78 73 78 148c0 76 -31 119 -56 139
c-19 15 -57 28 -87 28c-92 0 -130 -50 -142 -50c-9 0 -16 3 -16 11v272c0 13 5 20 23 20h308c3 0 6 -2 6 -7c0 -22 -31 -49 -60 -59c-12 -4 -32 -6 -58 -6h-199v-203c34 23 79 46 142 46c119 0 215 -78 215 -191z" />
    <glyph glyph-name="six" unicode="6" horiz-adv-x="500" 
d="M456 177c0 -104 -72 -192 -195 -192s-205 96 -205 317c0 179 72 318 230 318c96 0 160 -58 160 -119c0 -40 -22 -69 -61 -69c-17 0 -42 11 -42 41c0 20 19 35 37 35c26 0 35 -26 35 -39c6 8 7 18 7 32c0 50 -60 91 -136 91c-50 0 -82 -19 -98 -36
c-34 -37 -56 -96 -56 -255c0 -137 14 -234 54 -264c16 -12 34 -24 75 -24c25 0 53 4 75 24c29 28 44 75 44 140c0 59 -17 112 -36 135c-10 12 -28 24 -66 24c-77 0 -102 -68 -111 -68c-7 0 -12 4 -12 11c0 26 55 85 123 85c97 0 178 -75 178 -187z" />
    <glyph glyph-name="seven" unicode="7" horiz-adv-x="389" 
d="M352 582c0 -97 -49 -170 -97 -301c-81 -222 -71 -281 -96 -281h-71c-6 0 -9 3 -9 10c0 17 59 162 147 301c66 104 93 176 96 222h-229c-17 0 -27 -12 -36 -12c-3 0 -10 3 -10 11c0 6 10 42 12 54c3 18 14 19 28 19h245c14 0 20 -3 20 -23z" />
    <glyph glyph-name="eight" unicode="8" horiz-adv-x="500" 
d="M481 170c0 -111 -86 -185 -211 -185s-211 55 -211 155c0 128 99 162 114 162c3 0 9 0 9 -7c0 -5 -69 -47 -69 -154c0 -44 25 -76 37 -88c14 -14 52 -40 120 -40c64 0 101 26 115 40c12 12 36 45 36 95c0 69 -36 107 -79 127c-57 26 -132 40 -183 63
c-44 19 -83 60 -83 121c0 110 99 161 198 161c103 0 195 -51 195 -147c0 -76 -81 -111 -94 -111c-3 0 -9 0 -9 7c0 5 49 32 49 103c0 45 -23 78 -37 89s-48 31 -104 31c-58 0 -90 -20 -104 -31s-34 -37 -34 -75c0 -57 37 -82 83 -102c48 -22 105 -30 148 -50
c60 -28 114 -77 114 -164z" />
    <glyph glyph-name="nine" unicode="9" horiz-adv-x="500" 
d="M456 303c0 -179 -72 -318 -230 -318c-96 0 -160 58 -160 119c0 40 22 69 61 69c17 0 42 -11 42 -41c0 -20 -19 -35 -37 -35c-26 0 -35 26 -35 39c-6 -8 -7 -18 -7 -32c0 -50 60 -91 136 -91c50 0 82 19 98 36c34 37 56 96 56 255c0 137 -14 234 -54 264
c-16 12 -34 24 -75 24c-25 0 -53 -4 -75 -24c-29 -28 -44 -75 -44 -140c0 -59 17 -112 36 -135c10 -12 28 -24 66 -24c77 0 102 68 111 68c7 0 12 -4 12 -11c0 -26 -55 -85 -123 -85c-97 0 -178 75 -178 187c0 104 72 192 195 192s205 -96 205 -317z" />
    <glyph glyph-name="colon" unicode=":" horiz-adv-x="204" 
d="M146 255c0 -24 -19 -43 -43 -43s-43 19 -43 43s19 43 43 43s43 -19 43 -43zM146 28c0 -24 -19 -43 -43 -43s-43 19 -43 43s19 43 43 43s43 -19 43 -43z" />
    <glyph glyph-name="semicolon" unicode=";" horiz-adv-x="204" 
d="M146 255c0 -24 -19 -43 -43 -43s-43 19 -43 43s19 43 43 43s43 -19 43 -43zM148 17c0 -45 -38 -89 -68 -89c-6 0 -9 6 -9 11c0 10 31 9 31 42c-19 3 -47 18 -47 45c0 25 19 45 47 45c23 0 46 -23 46 -54z" />
    <glyph glyph-name="less" unicode="&#x3c;" 
d="M463 7l-426 199v50l426 199v-50l-376 -174l376 -174v-50z" />
    <glyph glyph-name="equal" unicode="=" 
d="M483 272h-446v52h446v-52zM483 138h-446v52h446v-52z" />
    <glyph glyph-name="greater" unicode="&#x3e;" 
d="M483 206l-426 -199v50l376 174l-376 174v50l426 -199v-50z" />
    <glyph glyph-name="question" unicode="?" horiz-adv-x="500" 
d="M436 525c0 -144 -128 -155 -180 -230c-32 -47 -35 -113 -35 -149h-24c0 181 16 159 116 263c28 28 45 62 45 129c0 61 -22 95 -41 114c-14 14 -47 29 -90 29c-77 0 -149 -50 -149 -109c0 -8 2 -19 7 -23c2 10 19 33 43 33c20 0 37 -14 37 -39c0 -26 -18 -41 -50 -41
c-35 0 -58 31 -58 65c0 81 86 138 178 138c103 0 201 -58 201 -180zM250 28c0 -24 -19 -43 -43 -43s-43 19 -43 43s19 43 43 43s43 -19 43 -43z" />
    <glyph glyph-name="at" unicode="@" horiz-adv-x="892" 
d="M842 250c0 -130 -74 -255 -206 -255c-48 0 -88 35 -95 78c-21 -25 -66 -76 -134 -76c-74 0 -119 40 -119 104c0 147 205 135 253 207c0 51 -24 84 -42 92c-19 8 -38 11 -51 11c-10 0 -36 -2 -51 -11c-14 -8 -29 -27 -29 -41c14 0 36 -11 36 -38c0 -24 -20 -38 -45 -38
c-30 0 -46 27 -46 52c0 53 59 98 135 98c125 0 162 -70 162 -181v-129c0 -46 2 -76 66 -76c50 0 101 49 101 168c0 260 -126 380 -323 380c-177 0 -323 -149 -323 -375c0 -250 152 -392 330 -392c102 0 229 42 306 109l23 -27c-76 -67 -199 -115 -352 -115
c-228 0 -386 163 -386 395c0 260 185 438 430 438c224 0 360 -145 360 -378zM541 108v165c-79 -68 -181 -45 -181 -150c0 -57 33 -100 65 -100c41 0 84 47 116 85z" />
    <glyph glyph-name="A" unicode="A" horiz-adv-x="685" 
d="M671 14c0 -8 -5 -14 -21 -14h-197c-16 0 -21 6 -21 14s5 14 21 14h45c6 3 9 14 9 25c0 6 -4 25 -11 43l-46 125h-248l-29 -78c-11 -29 -14 -55 -14 -61c0 -23 13 -46 19 -54h53c16 0 21 -6 21 -14s-5 -14 -21 -14h-197c-16 0 -21 6 -21 14s5 14 21 14h44
c25 23 42 53 68 123l185 493c12 31 14 41 26 41s16 -21 32 -66l188 -518c15 -41 24 -58 40 -73h33c16 0 21 -6 21 -14zM439 249l-112 301l-115 -301h227z" />
    <glyph glyph-name="B" unicode="B" horiz-adv-x="685" 
d="M629 188c0 -140 -110 -188 -256 -188h-321c-15 0 -21 6 -21 14c0 9 6 14 21 14h51c24 27 24 55 24 124v381c0 69 0 97 -24 124h-51c-15 0 -21 5 -21 14c0 8 6 14 21 14h321c109 0 243 -13 243 -153s-134 -153 -243 -153h-168v-351h128c95 0 124 12 139 21
c17 10 74 35 74 139c0 120 -149 163 -149 173c0 8 7 9 12 9c45 0 220 -43 220 -182zM533 532c0 61 -25 97 -45 107c-30 15 -60 18 -155 18h-128v-250h128c95 0 125 3 155 18c20 10 45 46 45 107z" />
    <glyph glyph-name="C" unicode="C" horiz-adv-x="611" 
d="M567 198c0 -103 -80 -218 -228 -218c-178 0 -293 164 -293 362c0 199 114 363 293 363c100 0 150 -41 184 -41c5 0 15 0 15 -10v-101c0 -24 -2 -31 -10 -31c-16 0 -32 84 -77 122c-18 15 -58 33 -112 33c-37 0 -72 -14 -96 -33c-36 -30 -111 -110 -111 -302
c0 -191 75 -268 111 -301c24 -22 59 -33 96 -33c87 0 144 49 175 101c18 31 21 68 21 89c0 45 -9 68 -9 81c0 5 2 8 9 8c15 0 32 -44 32 -89z" />
    <glyph glyph-name="D" unicode="D" horiz-adv-x="685" 
d="M639 343c0 -221 -127 -343 -338 -343h-248c-15 0 -21 6 -21 14c0 9 6 14 21 14h51c24 27 24 55 24 124v381c0 69 0 97 -24 124h-51c-15 0 -21 5 -21 14c0 8 6 14 21 14h248c211 0 338 -122 338 -342zM553 343c0 160 -85 264 -121 283c-35 18 -70 31 -161 31h-65v-629h65
c91 0 126 13 161 32c36 19 121 123 121 283z" />
    <glyph glyph-name="E" unicode="E" horiz-adv-x="611" 
d="M571 16c0 -7 -5 -16 -14 -16h-497c-15 0 -21 6 -21 14c0 9 6 14 21 14h51c24 27 24 55 24 124v381c0 69 0 97 -24 124h-51c-15 0 -21 5 -21 14c0 8 6 14 21 14h484c9 0 14 -9 14 -16v-134c0 -16 -5 -18 -12 -18c-4 0 -12 2 -12 18v21c0 13 -32 68 -89 101h-232v-291h105
c28 11 41 26 54 54v25c0 14 5 18 12 18s12 -4 12 -18v-186c0 -14 -5 -18 -12 -18s-12 4 -12 18v25c-13 28 -26 43 -54 54h-105v-310h247c55 33 87 92 87 105v37c0 14 8 18 12 18c7 0 12 -2 12 -18v-154z" />
    <glyph glyph-name="F" unicode="F" horiz-adv-x="593" 
d="M555 535c0 -16 -5 -18 -12 -18c-4 0 -12 2 -12 18v21c0 13 -32 68 -89 101h-232v-291h115c28 11 41 26 54 54v25c0 14 5 18 12 18s12 -4 12 -18v-186c0 -14 -5 -18 -12 -18s-12 4 -12 18v25c-13 28 -26 43 -54 54h-115v-186c0 -69 0 -97 24 -124h51c15 0 21 -5 21 -14
c0 -8 -6 -14 -21 -14h-228c-15 0 -21 6 -21 14c0 9 6 14 21 14h51c24 27 24 55 24 124v381c0 69 0 97 -24 124h-51c-15 0 -21 5 -21 14c0 8 6 14 21 14h484c9 0 14 -9 14 -16v-134z" />
    <glyph glyph-name="G" unicode="G" horiz-adv-x="667" 
d="M649 307c0 -9 -6 -14 -21 -14h-41c-24 -27 -24 -55 -24 -124c0 -12 8 -23 8 -34c0 -34 -74 -155 -226 -155c-178 0 -293 164 -293 362c0 199 114 363 293 363c69 0 98 -30 135 -30c39 0 57 22 62 22c7 0 7 -6 7 -10v-170c0 -23 -2 -31 -14 -31s-14 8 -14 31
c0 31 -37 109 -71 131c-27 18 -62 29 -105 29c-37 0 -72 -12 -96 -33c-36 -32 -111 -110 -111 -302c0 -191 75 -269 111 -301c24 -21 59 -33 96 -33s77 10 105 31c33 17 35 105 35 130c0 69 0 97 -24 124h-23c-15 0 -21 5 -21 14c0 8 6 14 21 14h190c15 0 21 -5 21 -14z" />
    <glyph glyph-name="H" unicode="H" horiz-adv-x="685" 
d="M659 14c0 -8 -6 -14 -21 -14h-228c-15 0 -21 5 -21 14c0 8 6 14 21 14h51c24 27 24 55 24 124v196h-285v-196c0 -69 0 -97 24 -124h51c15 0 21 -6 21 -14c0 -9 -6 -14 -21 -14h-228c-15 0 -21 6 -21 14s6 14 21 14h51c24 27 24 55 24 124v381c0 69 0 97 -24 124h-51
c-15 0 -21 6 -21 14s6 14 21 14h228c15 0 21 -5 21 -14c0 -8 -6 -14 -21 -14h-51c-24 -27 -24 -55 -24 -124v-157h285v157c0 69 0 97 -24 124h-51c-15 0 -21 6 -21 14c0 9 6 14 21 14h228c15 0 21 -6 21 -14s-6 -14 -21 -14h-51c-24 -27 -24 -55 -24 -124v-381
c0 -69 0 -97 24 -124h51c15 0 21 -6 21 -14z" />
    <glyph glyph-name="I" unicode="I" horiz-adv-x="333" 
d="M301 14c0 -9 -6 -14 -21 -14h-228c-15 0 -21 6 -21 14c0 9 6 14 21 14h51c24 27 24 55 24 124v381c0 69 0 97 -24 124h-51c-15 0 -21 5 -21 14c0 8 6 14 21 14h228c15 0 21 -5 21 -14s-6 -14 -21 -14h-51c-24 -27 -24 -55 -24 -124v-381c0 -69 0 -97 24 -124h51
c15 0 21 -5 21 -14z" />
    <glyph glyph-name="J" unicode="J" horiz-adv-x="556" 
d="M542 671c0 -9 -6 -14 -21 -14h-51c-24 -27 -24 -55 -24 -124v-344c0 -139 -79 -209 -230 -209s-207 70 -207 145c0 58 39 96 79 96c35 0 60 -23 60 -53c0 -28 -21 -45 -45 -45c-26 0 -42 24 -45 29c-10 -10 -17 -17 -17 -40c0 -42 43 -73 56 -80c19 -11 62 -24 119 -24
c56 0 93 14 111 30c29 25 41 68 41 150v345c0 69 0 97 -24 124h-51c-15 0 -21 5 -21 14c0 8 6 14 21 14h228c15 0 21 -5 21 -14z" />
    <glyph glyph-name="K" unicode="K" horiz-adv-x="685" 
d="M670 14c0 -9 -6 -14 -21 -14h-258c-15 0 -21 6 -21 14c0 9 6 14 21 14h76c3 2 6 8 6 19c0 12 -5 22 -20 60l-112 287l-152 -209v-33c0 -69 0 -97 24 -124h51c15 0 21 -5 21 -14s-6 -14 -21 -14h-228c-15 0 -21 6 -21 14c0 9 6 14 21 14h51c24 27 24 55 24 124v381
c0 69 0 97 -24 124h-51c-15 0 -21 5 -21 14c0 8 6 14 21 14h228c15 0 21 -5 21 -14s-6 -14 -21 -14h-51c-24 -27 -24 -55 -24 -124v-302l251 344c17 23 24 37 24 57c0 8 -4 18 -9 25h-59c-15 0 -21 5 -21 14c0 8 6 14 21 14h228c15 0 21 -5 21 -14s-6 -14 -21 -14h-51
c-43 -15 -66 -41 -106 -94l-74 -98l147 -371c15 -37 20 -58 39 -66h70c15 0 21 -5 21 -14z" />
    <glyph glyph-name="L" unicode="L" horiz-adv-x="537" 
d="M499 16c0 -7 -5 -16 -14 -16h-438c-15 0 -21 6 -21 14c0 9 6 14 21 14h51c24 27 24 55 24 124v381c0 69 0 97 -24 124h-51c-15 0 -21 5 -21 14c0 8 6 14 21 14h228c15 0 21 -6 21 -14c0 -9 -6 -14 -21 -14h-51c-24 -27 -24 -55 -24 -124v-505h186c57 33 89 88 89 101v21
c0 16 8 18 12 18c7 0 12 -2 12 -18v-134z" />
    <glyph glyph-name="M" unicode="M" horiz-adv-x="778" 
d="M759 671c0 -10 -6 -14 -21 -14h-65c-26 -15 -27 -43 -27 -114v-391c0 -69 0 -97 24 -124h51c15 0 21 -5 21 -14c0 -8 -6 -14 -21 -14h-228c-15 0 -21 5 -21 14s6 14 21 14h51c24 27 24 55 24 124v475l-184 -561c-12 -35 -15 -50 -24 -50s-12 15 -23 50l-178 544v-468
c0 -72 1 -99 27 -114h65c15 0 21 -5 21 -14c0 -10 -8 -14 -21 -14h-212c-13 0 -21 4 -21 14c0 9 6 14 21 14h65c26 15 27 42 27 114v413c0 63 -1 89 -27 102h-65c-15 0 -21 4 -21 14s8 14 21 14h165c13 0 19 -6 36 -58l146 -457l151 457c17 52 20 58 36 58h165
c13 0 21 -4 21 -14z" />
    <glyph glyph-name="N" unicode="N" horiz-adv-x="685" 
d="M678 671c0 -9 -6 -14 -21 -14h-76c-24 -27 -24 -55 -24 -124v-477c0 -72 -1 -76 -12 -76c-10 0 -27 33 -47 66l-337 564v-458c0 -69 0 -97 24 -124h76c15 0 21 -5 21 -14s-6 -14 -21 -14h-226c-15 0 -21 6 -21 14c0 9 6 14 21 14h74c24 27 24 55 24 124v381
c0 67 0 98 -24 124h-46c-15 0 -21 5 -21 14c0 8 6 14 21 14h147l319 -533v381c0 69 0 97 -24 124h-74c-15 0 -21 5 -21 14c0 8 6 14 21 14h226c15 0 21 -5 21 -14z" />
    <glyph glyph-name="O" unicode="O" horiz-adv-x="630" 
d="M578 342c0 -198 -106 -362 -263 -362c-160 0 -263 164 -263 362c0 199 102 363 263 363c157 0 263 -164 263 -363zM492 342c0 191 -55 277 -82 301c-24 21 -58 34 -95 34s-71 -13 -95 -34c-27 -24 -82 -110 -82 -301c0 -190 55 -276 82 -300c24 -21 58 -34 95 -34
s71 13 95 34c27 24 82 110 82 300z" />
    <glyph glyph-name="P" unicode="P" horiz-adv-x="648" 
d="M618 490c0 -128 -81 -195 -248 -195h-163v-143c0 -69 0 -97 24 -124h51c15 0 21 -5 21 -14s-6 -14 -21 -14h-228c-15 0 -21 6 -21 14c0 9 6 14 21 14h51c24 27 24 55 24 124v381c0 69 0 97 -24 124h-51c-15 0 -21 5 -21 14c0 8 6 14 21 14h316c167 0 248 -67 248 -195z
M535 490c0 96 -39 130 -65 148s-71 19 -130 19h-133v-334h133c59 0 104 1 130 19s65 52 65 148z" />
    <glyph glyph-name="Q" unicode="Q" horiz-adv-x="630" 
d="M601 -40c0 -23 -49 -68 -107 -68c-85 0 -122 53 -147 91c-10 -1 -21 -3 -32 -3c-160 0 -263 164 -263 362c0 199 102 363 263 363c157 0 263 -164 263 -363c0 -185 -82 -305 -181 -346c21 -24 54 -60 117 -60c50 0 78 32 82 32s5 -5 5 -8zM492 342c0 191 -55 277 -82 301
c-24 21 -58 34 -95 34s-71 -13 -95 -34c-27 -24 -82 -110 -82 -301s54 -277 81 -301c7 -7 17 -12 27 -18c17 18 34 29 57 29c27 0 56 -13 75 -32c10 4 24 13 33 21c27 24 81 110 81 301zM330 11c-7 9 -18 13 -27 13c-10 0 -20 -3 -28 -10c6 -4 22 -6 28 -6c9 0 19 2 27 3z
" />
    <glyph glyph-name="R" unicode="R" horiz-adv-x="704" 
d="M667 12c0 -20 -54 -32 -74 -32c-31 0 -53 7 -76 28c-42 38 -41 82 -69 211c-16 77 -57 91 -57 102c0 6 7 7 13 7c123 0 125 -185 158 -255c18 -39 40 -63 59 -63c15 0 22 14 34 14c3 0 12 -3 12 -12zM628 512c0 -112 -81 -173 -248 -173h-169v-187c0 -69 0 -97 24 -124
h51c15 0 21 -5 21 -14s-6 -14 -21 -14h-228c-15 0 -21 6 -21 14c0 9 6 14 21 14h51c24 27 24 55 24 124v379c0 70 0 99 -24 126h-51c-15 0 -21 5 -21 14c0 8 6 14 21 14h322c167 0 248 -61 248 -173zM545 512c0 84 -39 109 -65 126s-71 19 -130 19h-139v-290h139
c59 0 104 2 130 19s65 45 65 126z" />
    <glyph glyph-name="S" unicode="S" horiz-adv-x="593" 
d="M551 172c0 -123 -109 -192 -234 -192c-101 0 -170 33 -196 33c-30 0 -47 -23 -59 -23c-6 0 -12 4 -12 11v170c0 9 2 17 14 17c11 0 14 -8 14 -17c0 -46 4 -98 59 -123c24 -11 99 -40 180 -40c69 0 108 24 123 37c18 15 39 50 39 90c0 93 -46 131 -125 156
c-43 13 -96 30 -157 49c-88 28 -142 90 -142 184c0 109 89 181 221 181c105 0 163 -35 178 -35c26 0 49 21 58 21c6 0 12 -4 12 -12v-134c0 -15 -3 -20 -13 -20c-4 0 -10 1 -14 12c-10 32 -38 72 -54 86c-17 14 -67 54 -162 54c-46 0 -82 -17 -104 -33s-50 -52 -50 -95
c0 -71 32 -112 91 -130c48 -15 113 -38 191 -62c88 -27 142 -92 142 -185z" />
    <glyph glyph-name="T" unicode="T" horiz-adv-x="556" 
d="M539 521c0 -16 -5 -18 -12 -18c-4 0 -12 2 -12 18c0 19 -33 102 -89 136h-109v-505c0 -69 0 -97 24 -124h51c15 0 21 -5 21 -14c0 -8 -6 -14 -21 -14h-228c-15 0 -21 6 -21 14c0 9 6 14 21 14h51c24 27 24 55 24 124v505h-109c-56 -34 -89 -117 -89 -136
c0 -16 -8 -18 -12 -18c-7 0 -12 2 -12 18v147c0 12 5 17 17 17h488c12 0 17 -5 17 -17v-147z" />
    <glyph glyph-name="U" unicode="U" horiz-adv-x="667" 
d="M657 671c0 -9 -6 -14 -21 -14h-71c-24 -27 -24 -55 -24 -124v-361c0 -130 -59 -192 -202 -192c-135 0 -215 57 -215 195v358c0 69 0 97 -24 124h-51c-15 0 -21 5 -21 14c0 8 6 14 21 14h208c15 0 21 -5 21 -14s-6 -14 -21 -14h-31c-24 -27 -24 -55 -24 -124v-358
c0 -118 38 -167 137 -167c77 0 174 20 174 154v371c0 69 0 97 -24 124h-56c-15 0 -21 5 -21 14c0 8 6 14 21 14h203c15 0 21 -5 21 -14z" />
    <glyph glyph-name="V" unicode="V" horiz-adv-x="685" 
d="M682 671c0 -8 -5 -14 -21 -14h-44c-21 -13 -43 -53 -68 -123l-185 -513c-11 -31 -14 -41 -26 -41s-16 21 -32 66l-188 538c-14 41 -24 58 -40 73h-33c-16 0 -21 6 -21 14s5 14 21 14h197c16 0 21 -6 21 -14s-5 -14 -21 -14h-45c-6 -3 -9 -14 -9 -25c0 -6 5 -25 11 -43
l169 -474l154 427c10 29 14 55 14 61c0 23 -13 46 -19 54h-53c-16 0 -21 6 -21 14s5 14 21 14h197c16 0 21 -6 21 -14z" />
    <glyph glyph-name="W" unicode="W" horiz-adv-x="944" 
d="M936 671c0 -8 -5 -14 -21 -14h-44c-15 -22 -53 -54 -85 -167l-135 -470c-7 -25 -9 -40 -17 -40s-10 15 -18 40l-147 479l-139 -479c-7 -24 -10 -40 -18 -40s-13 16 -20 40l-145 488c-21 69 -28 103 -69 149h-38c-16 0 -21 6 -21 14s5 14 21 14h202c16 0 21 -6 21 -14
s-5 -14 -21 -14h-38c-3 -9 -7 -20 -7 -33c0 -25 20 -81 24 -94l119 -383l115 398c-8 25 -27 86 -54 112h-38c-16 0 -21 6 -21 14s5 14 21 14h192c16 0 21 -6 21 -14s-5 -14 -21 -14h-28c-3 -9 -11 -20 -11 -33c0 -25 20 -80 24 -93l120 -384l108 374c7 25 11 50 11 69
c0 28 -15 51 -26 67h-53c-16 0 -21 6 -21 14s5 14 21 14h215c16 0 21 -6 21 -14z" />
    <glyph glyph-name="X" unicode="X" horiz-adv-x="611" 
d="M586 14c0 -8 -5 -14 -21 -14h-197c-16 0 -21 6 -21 14s5 14 21 14h47c2 5 3 13 3 21s-9 31 -19 50l-116 215l-119 -219c-5 -9 -8 -22 -8 -36c0 -9 7 -26 12 -31h34c16 0 21 -6 21 -14s-5 -14 -21 -14h-156c-16 0 -21 6 -21 14s5 14 21 14h22c28 17 46 40 75 93l124 225
l-124 230c-13 24 -29 59 -59 81h-23c-16 0 -21 6 -21 14s5 14 21 14h187c16 0 21 -6 21 -14s-5 -14 -21 -14h-42c-2 -5 -3 -10 -3 -17c0 -8 10 -27 19 -43l89 -168l86 161c5 9 8 18 8 36c0 9 -7 26 -12 31h-27c-16 0 -21 6 -21 14s5 14 21 14h171c16 0 21 -6 21 -14
s-5 -14 -21 -14h-44c-28 -17 -46 -39 -75 -93l-90 -166l155 -289c13 -24 34 -64 56 -81h26c16 0 21 -6 21 -14z" />
    <glyph glyph-name="Y" unicode="Y" horiz-adv-x="648" 
d="M640 671c0 -8 -6 -14 -21 -14h-44c-48 -32 -68 -67 -113 -141l-118 -195v-169c0 -69 0 -97 24 -124h51c15 0 21 -5 21 -14c0 -8 -6 -14 -21 -14h-228c-15 0 -21 6 -21 14c0 9 6 14 21 14h51c24 27 24 55 24 124v167l-133 249c-24 45 -43 78 -62 89h-42
c-16 0 -21 6 -21 14c0 9 5 14 21 14h221c16 0 21 -5 21 -14c0 -8 -5 -14 -21 -14h-52c-6 -3 -9 -14 -9 -25c0 -10 13 -34 22 -48l121 -232l129 216c13 22 21 37 21 50c0 17 -13 32 -19 39h-53c-16 0 -21 6 -21 14c0 9 5 14 21 14h209c16 0 21 -5 21 -14z" />
    <glyph glyph-name="Z" unicode="Z" horiz-adv-x="537" 
d="M500 16c0 -7 -5 -16 -14 -16h-417c-26 0 -32 5 -32 14c0 7 3 12 11 26l350 617h-210c-26 -10 -46 -26 -66 -55c-26 -38 -28 -69 -43 -69c-8 0 -14 2 -14 19v117c0 7 5 16 14 16h389c18 0 26 0 26 -11c0 -12 -9 -24 -15 -35l-344 -611h262c12 5 29 24 48 50
c33 44 30 67 44 67c6 0 11 -2 11 -19v-110z" />
    <glyph glyph-name="bracketleft" unicode="[" horiz-adv-x="278" 
d="M252 -133h-168v818h168v-33h-108v-752h108v-33z" />
    <glyph glyph-name="backslash" unicode="\" horiz-adv-x="204" 
d="M152 -15h-40l-90 700h40z" />
    <glyph glyph-name="bracketright" unicode="]" horiz-adv-x="278" 
d="M194 -133h-168v33h108v752h-108v33h168v-818z" />
    <glyph glyph-name="asciicircum" unicode="^" 
d="M484 279h-50l-174 291l-174 -291h-50l199 341h50z" />
    <glyph glyph-name="underscore" unicode="_" horiz-adv-x="500" 
d="M500 -125h-500v49h500v-49z" />
    <glyph glyph-name="quoteleft" unicode="&#x2018;" horiz-adv-x="204" 
d="M148 607c0 -25 -19 -45 -47 -45c-23 0 -46 23 -46 54c0 45 38 89 68 89c6 0 9 -6 9 -11c0 -10 -31 -9 -31 -42c19 -3 47 -18 47 -45z" />
    <glyph glyph-name="a" unicode="a" horiz-adv-x="481" 
d="M463 53c0 -21 -37 -68 -86 -68c-56 0 -72 43 -72 80c-22 -26 -70 -80 -141 -80c-83 0 -126 40 -126 110c0 155 206 131 267 218c0 54 -26 89 -44 97c-21 9 -41 11 -54 11c-11 0 -38 -2 -54 -11c-15 -8 -30 -29 -30 -43c14 0 38 -12 38 -40c0 -26 -22 -40 -48 -40
c-31 0 -48 28 -48 54c0 56 62 104 142 104c131 0 170 -74 170 -191v-188c0 -35 16 -42 25 -42c25 0 37 43 47 43c9 0 14 -6 14 -14zM305 102v174c-83 -72 -191 -47 -191 -158c0 -60 35 -105 69 -105c43 0 88 49 122 89z" />
    <glyph glyph-name="b" unicode="b" 
d="M468 216c0 -135 -74 -231 -167 -231c-73 0 -108 49 -117 97v-59c0 -23 -7 -23 -44 -23h-100c-12 0 -20 4 -20 14s8 14 20 14h51c21 28 21 45 21 117v395c0 16 0 98 -20 117h-48c-14 0 -24 2 -24 14c0 11 7 14 24 14h120c13 0 20 -7 20 -20v-304c22 40 59 84 117 84
c93 0 167 -85 167 -229zM392 216c0 98 -30 166 -44 184c-11 14 -29 21 -47 21c-56 0 -106 -83 -117 -113v-173c4 17 8 31 18 31c4 0 9 -3 9 -10c0 -14 -7 -23 -7 -46c0 -45 38 -101 97 -101c12 0 36 7 47 21c14 18 44 84 44 186z" />
    <glyph glyph-name="c" unicode="c" horiz-adv-x="444" 
d="M391 131c0 -76 -53 -146 -166 -146c-94 0 -180 87 -180 230s86 230 180 230c61 0 78 -20 95 -20c18 0 26 15 40 15c4 0 8 -3 8 -6v-109c0 -23 -2 -31 -9 -31c-4 0 -8 7 -13 19c-12 27 -38 65 -57 87c-14 16 -38 21 -64 21c-16 0 -39 -5 -53 -21c-19 -21 -51 -85 -51 -185
c0 -97 32 -161 51 -182c14 -16 37 -24 53 -24c34 0 55 6 75 21c31 23 55 64 55 105c0 43 -15 69 -15 76c0 6 4 8 7 8c16 0 44 -48 44 -88z" />
    <glyph glyph-name="d" unicode="d" horiz-adv-x="500" 
d="M476 14c0 -10 -8 -14 -20 -14h-100c-37 0 -44 0 -44 23v59c-8 -48 -40 -97 -107 -97c-93 0 -167 96 -167 231c0 144 74 229 167 229c53 0 87 -44 107 -84v179c0 26 0 98 -20 117h-48c-14 0 -24 1 -24 14s10 14 24 14h119c21 0 21 -7 21 -25v-514c0 -73 0 -90 21 -118h51
c12 0 20 -4 20 -14zM312 135v173c-10 30 -56 113 -107 113c-16 0 -35 -6 -47 -24c-20 -28 -44 -86 -44 -181c0 -99 24 -155 44 -183c12 -18 31 -24 47 -24c53 0 87 56 87 101c0 23 -7 32 -7 46c0 7 5 10 9 10c10 0 14 -14 18 -31z" />
    <glyph glyph-name="e" unicode="e" horiz-adv-x="444" 
d="M393 232c0 -10 -9 -13 -21 -13h-255c0 -116 33 -171 51 -189c14 -14 38 -21 52 -21c73 0 117 43 117 109c0 11 4 14 11 14h22c8 0 10 -7 10 -14c0 -57 -55 -133 -160 -133s-179 87 -179 230s81 230 179 230c141 0 173 -186 173 -213zM310 247c0 74 -17 137 -38 156
c-16 14 -33 18 -52 18c-14 0 -36 -4 -52 -18c-21 -19 -51 -72 -51 -156h193z" />
    <glyph glyph-name="f" unicode="f" horiz-adv-x="352" 
d="M410 578c0 -35 -22 -68 -54 -68c-17 0 -40 15 -40 40c0 40 33 40 59 43c2 1 4 7 4 10c0 32 -43 58 -102 58c-11 0 -38 -4 -52 -18c-19 -19 -38 -40 -38 -114v-99h72c12 0 20 -4 20 -15c0 -9 -8 -13 -20 -13h-72v-270c0 -59 1 -94 40 -104h32c12 0 20 -4 20 -15
c0 -9 -8 -13 -20 -13h-219c-12 0 -18 4 -18 13c0 11 6 15 18 15h35c39 10 40 45 40 104v270h-51c-12 0 -20 4 -20 13c0 11 8 15 20 15h51v93c0 102 58 162 163 162c88 0 132 -49 132 -107z" />
    <glyph glyph-name="g" unicode="g" horiz-adv-x="481" 
d="M416 500c0 -17 -14 -34 -35 -34s-31 14 -31 26c0 11 2 20 6 26c-38 0 -56 -33 -81 -73c64 -6 138 -49 138 -152c0 -99 -85 -152 -170 -152s-171 53 -171 152c0 103 84 152 177 152c19 35 58 97 114 97c32 0 53 -21 53 -42zM456 -115c0 -131 -98 -180 -228 -180
c-111 0 -210 37 -210 142c0 57 52 105 91 105c3 0 4 -2 4 -6c0 -7 -52 -27 -52 -99c0 -33 7 -58 21 -72c19 -19 57 -46 145 -46s131 27 150 46c14 14 29 40 29 72c0 70 -34 128 -139 126l-54 -1c-81 -1 -160 11 -160 87c0 61 65 81 110 81c5 0 12 -4 12 -10
c0 -24 -57 -3 -57 -46c0 -34 41 -41 81 -40l54 1c110 2 203 -29 203 -160zM337 293c0 57 -14 90 -33 109c-14 14 -29 19 -41 19c-5 -11 -10 -20 -15 -33c-7 -16 -10 -23 -17 -23s-7 7 -7 12c0 6 2 12 4 19c2 9 5 17 9 25c-12 0 -41 -5 -55 -19c-19 -19 -34 -52 -34 -109
c0 -62 15 -90 34 -109c14 -14 43 -19 61 -19s47 5 61 19c19 19 33 45 33 109z" />
    <glyph glyph-name="h" unicode="h" horiz-adv-x="537" 
d="M518 14c0 -10 -5 -14 -20 -14h-127c-8 0 -17 0 -17 17v299c0 76 -22 101 -53 101c-53 0 -84 -35 -118 -83v-191c0 -72 1 -100 27 -115h43c15 0 21 -4 21 -15c0 -9 -8 -13 -21 -13h-214c-13 0 -21 4 -21 13c0 11 6 15 21 15h45c26 15 27 43 27 115v399
c0 72 -1 100 -27 115h-46c-15 0 -20 4 -20 14s5 14 20 14h129c10 0 16 -5 16 -17v-293c32 43 65 70 123 70c85 0 120 -60 120 -140v-183c0 -36 0 -73 22 -94h50c15 0 20 -4 20 -14z" />
    <glyph glyph-name="i" unicode="i" horiz-adv-x="296" 
d="M190 642c0 -25 -18 -43 -43 -43s-43 18 -43 43s18 43 43 43s43 -18 43 -43zM283 13c0 -9 -8 -13 -20 -13h-219c-12 0 -18 4 -18 13c0 11 6 15 18 15h35c39 10 40 45 40 104v166c0 59 -1 94 -40 104h-29c-14 0 -24 2 -24 14c0 11 7 14 24 14h124c13 0 17 -7 17 -19v-279
c0 -59 1 -94 40 -104h32c12 0 20 -4 20 -15z" />
    <glyph glyph-name="j" unicode="j" horiz-adv-x="296" 
d="M188 642c0 -25 -18 -43 -43 -43s-43 18 -43 43s18 43 43 43s43 -18 43 -43zM189 -129c0 -86 -2 -166 -156 -166c-45 0 -139 15 -139 95c0 29 19 54 49 54c25 0 43 -19 43 -44c0 -24 -13 -43 -43 -43c-6 0 -12 1 -18 5c14 -28 61 -43 108 -43c9 0 43 4 57 18
c19 19 27 40 27 126v425c0 59 -1 94 -40 104h-29c-14 0 -24 2 -24 14c0 11 7 14 24 14h124c13 0 17 -7 17 -19v-540z" />
    <glyph glyph-name="k" unicode="k" horiz-adv-x="556" 
d="M531 14c0 -8 -5 -14 -21 -14h-187c-16 0 -21 6 -21 14s5 14 21 14h36c0 25 -9 49 -51 132l-46 91l-74 -75v-44c0 -59 1 -94 40 -104h18c12 0 20 -4 20 -15c0 -9 -8 -13 -20 -13h-205c-12 0 -18 4 -18 13c0 11 6 15 18 15h35c39 10 40 45 40 104v421c0 59 -1 94 -40 104
h-29c-14 0 -24 2 -24 14c0 11 7 14 24 14h124c13 0 17 -7 17 -21v-454l147 145c8 8 9 15 9 23c0 10 -5 21 -7 24h-45c-16 0 -21 6 -21 14s5 14 21 14h182c16 0 21 -6 21 -14s-5 -14 -21 -14h-31c-18 -3 -55 -31 -72 -46l-59 -54l97 -185c24 -46 41 -78 57 -89h44
c16 0 21 -6 21 -14z" />
    <glyph glyph-name="l" unicode="l" horiz-adv-x="296" 
d="M281 13c0 -9 -8 -13 -20 -13h-219c-12 0 -18 4 -18 13c0 11 6 15 18 15h35c39 10 40 45 40 104v421c0 59 -1 94 -40 104h-29c-14 0 -24 2 -24 14c0 11 7 14 24 14h124c13 0 17 -7 17 -21v-532c0 -59 1 -94 40 -104h32c12 0 20 -4 20 -15z" />
    <glyph glyph-name="m" unicode="m" horiz-adv-x="796" 
d="M766 14c0 -10 -5 -14 -20 -14h-127c-10 0 -17 3 -17 18v314c0 62 -29 85 -53 85c-45 0 -80 -36 -115 -85v-189c0 -72 1 -100 27 -115h43c15 0 21 -4 21 -14s-8 -14 -21 -14h-194c-13 0 -21 4 -21 14s6 14 21 14h25c26 15 27 43 27 115v186c0 65 -29 88 -53 88
c-45 0 -80 -36 -115 -85v-189c0 -72 1 -100 27 -115h13c15 0 21 -4 21 -14s-8 -14 -21 -14h-184c-13 0 -21 4 -21 14s6 14 21 14h45c26 15 27 43 27 115v166c0 36 0 72 -23 93h-50c-15 0 -20 4 -20 13c0 11 5 15 20 15h128c10 0 17 -4 17 -15v-42c35 37 56 72 131 72
c74 0 88 -41 100 -72c35 37 65 72 140 72c74 0 109 -47 109 -140v-183c0 -51 0 -79 22 -94h50c15 0 20 -4 20 -14z" />
    <glyph glyph-name="n" unicode="n" horiz-adv-x="537" 
d="M518 14c0 -10 -5 -14 -20 -14h-127c-8 0 -17 0 -17 17v295c0 80 -22 105 -53 105c-53 0 -84 -35 -118 -83v-191c0 -72 1 -100 27 -115h43c15 0 21 -4 21 -14s-8 -14 -21 -14h-214c-13 0 -21 4 -21 14s6 14 21 14h45c26 15 27 43 27 115v165c0 36 0 73 -23 94h-50
c-15 0 -20 4 -20 14s5 14 20 14h128c10 0 17 -4 17 -14v-41c32 43 65 70 123 70c85 0 120 -60 120 -140v-183c0 -36 0 -73 22 -94h50c15 0 20 -4 20 -14z" />
    <glyph glyph-name="o" unicode="o" horiz-adv-x="444" 
d="M395 215c0 -143 -81 -230 -173 -230s-173 87 -173 230s81 230 173 230s173 -87 173 -230zM319 215c0 100 -26 161 -47 185c-15 17 -37 21 -50 21s-36 -4 -50 -21c-21 -24 -47 -85 -47 -185s26 -161 47 -185c14 -17 37 -21 50 -21s35 4 50 21c21 24 47 85 47 185z" />
    <glyph glyph-name="p" unicode="p" horiz-adv-x="500" 
d="M462 216c0 -135 -71 -231 -160 -231c-56 0 -90 35 -109 55v-295c0 -18 0 -25 -21 -25h-99c-17 0 -24 3 -24 14c0 12 10 14 24 14h8c39 10 40 45 40 104v446c0 59 -1 94 -38 104h-34c-12 0 -20 4 -20 14s8 14 20 14h120c18 0 24 -3 24 -19v-42c15 33 52 76 109 76
c90 0 160 -85 160 -229zM386 216c0 104 -28 175 -44 190c-12 12 -24 15 -40 15c-52 0 -83 -43 -109 -105v-223c24 -45 55 -84 109 -84c10 0 30 3 40 15c16 15 44 84 44 192z" />
    <glyph glyph-name="q" unicode="q" horiz-adv-x="500" 
d="M466 416c0 -10 -8 -14 -20 -14h-34c-37 -10 -38 -45 -38 -104v-446c0 -59 1 -94 40 -104h8c14 0 24 -2 24 -14c0 -11 -7 -14 -24 -14h-99c-21 0 -21 7 -21 25v295c-19 -20 -53 -55 -109 -55c-89 0 -160 96 -160 231c0 144 70 229 160 229c57 0 94 -43 109 -76v38
c0 23 7 23 44 23h100c12 0 20 -4 20 -14zM302 93v223c-26 62 -57 105 -109 105c-16 0 -28 -3 -40 -15c-16 -15 -44 -86 -44 -190c0 -108 28 -177 44 -192c10 -12 30 -15 40 -15c54 0 85 39 109 84z" />
    <glyph glyph-name="r" unicode="r" horiz-adv-x="407" 
d="M393 364c0 -39 -22 -70 -59 -70c-27 0 -48 22 -48 45c0 25 17 46 45 46c8 0 14 -1 22 -6c0 22 -12 42 -46 42c-55 0 -89 -42 -112 -67v-222c0 -59 1 -94 40 -104h32c12 0 20 -4 20 -15c0 -9 -8 -13 -20 -13h-219c-12 0 -18 4 -18 13c0 11 6 15 18 15h35
c39 10 40 45 40 104v166c0 59 -1 94 -40 104h-29c-14 0 -24 2 -24 14c0 11 7 14 24 14h125c10 0 16 -4 16 -15v-24c25 27 64 54 112 54c47 0 86 -28 86 -81z" />
    <glyph glyph-name="s" unicode="s" horiz-adv-x="370" 
d="M336 126c0 -88 -62 -141 -149 -141c-51 0 -86 21 -99 21c-17 0 -35 -21 -42 -21c-4 0 -7 5 -7 10v111c0 11 3 16 8 16s10 -8 15 -16c13 -24 27 -48 42 -63c15 -19 54 -34 83 -34c19 0 41 10 55 24c11 9 29 32 29 67c0 50 -34 75 -73 90c-24 14 -52 19 -69 29
c-59 22 -87 53 -87 111c0 73 46 115 131 115c35 0 67 -17 77 -17c19 0 38 17 49 17c5 0 12 -4 12 -10v-85c0 -7 -5 -14 -11 -14s-9 5 -13 13c-8 15 -19 34 -33 44c-16 14 -45 28 -81 28c-19 0 -42 -7 -54 -21c-11 -9 -23 -20 -23 -48c0 -33 19 -52 49 -60
c24 -10 50 -21 75 -30c76 -20 116 -74 116 -136z" />
    <glyph glyph-name="t" unicode="t" horiz-adv-x="278" 
d="M271 73c0 -15 -24 -88 -95 -88c-79 0 -113 46 -113 152v287c0 30 0 39 -20 67c66 57 69 92 83 92c7 0 9 -1 9 -6v-147h58c16 0 21 -6 21 -14s-5 -14 -21 -14h-58v-278c0 -70 5 -87 14 -96c14 -14 23 -15 38 -15c48 0 60 70 74 70c6 0 10 -2 10 -10z" />
    <glyph glyph-name="u" unicode="u" 
d="M479 14c0 -10 -5 -14 -20 -14h-128c-17 0 -17 9 -17 27c-26 -26 -53 -42 -101 -42c-85 0 -120 60 -120 140v183c0 36 0 73 -22 94h-50c-15 0 -20 4 -20 14s5 14 20 14h127c8 0 17 0 17 -17v-299c0 -80 22 -105 53 -105c43 0 68 23 96 55v223c0 72 -1 100 -27 115h-43
c-15 0 -21 4 -21 14s8 14 21 14h214c13 0 21 -4 21 -14s-6 -14 -21 -14h-45c-26 -15 -27 -43 -27 -115v-159c0 -38 0 -78 23 -100h50c15 0 20 -4 20 -14z" />
    <glyph glyph-name="v" unicode="v" horiz-adv-x="500" 
d="M487 416c0 -8 -5 -14 -21 -14h-16c-26 -27 -42 -44 -73 -122l-108 -267c-8 -20 -13 -28 -20 -28c-8 0 -13 10 -20 28l-114 286c-23 58 -39 84 -54 103h-44c-16 0 -21 6 -21 14s5 14 21 14h197c16 0 21 -6 21 -14s-5 -14 -21 -14h-39c-4 -2 -8 -8 -8 -16
c0 -10 9 -42 18 -64l90 -225l77 192c12 30 20 54 20 65c0 25 -15 40 -22 48h-38c-16 0 -21 6 -21 14s5 14 21 14h154c16 0 21 -6 21 -14z" />
    <glyph glyph-name="w" unicode="w" horiz-adv-x="759" 
d="M731 416c0 -8 -5 -14 -21 -14h-25c-39 -29 -45 -42 -72 -111l-106 -273c-11 -27 -15 -33 -24 -33c-7 0 -15 13 -24 36l-87 231l-92 -231c-10 -24 -15 -36 -24 -36s-15 17 -21 33l-107 273c-22 57 -41 90 -59 111h-44c-16 0 -21 6 -21 14s5 14 21 14h170
c16 0 21 -6 21 -14s-5 -14 -21 -14h-12c-4 -2 -8 -8 -8 -16c0 -19 10 -55 20 -80l87 -221l79 196c-9 23 -30 80 -63 121h-30c-16 0 -21 6 -21 14s5 14 21 14h155c16 0 21 -6 21 -14s-5 -14 -21 -14h-16c-4 -2 -8 -8 -8 -16c0 -11 10 -34 14 -44l97 -257l78 203
c12 31 20 45 20 66s-16 40 -23 48h-30c-16 0 -21 6 -21 14s5 14 21 14h155c16 0 21 -6 21 -14z" />
    <glyph glyph-name="x" unicode="x" horiz-adv-x="444" 
d="M412 14c0 -8 -5 -14 -21 -14h-154c-21 0 -21 6 -21 14s5 14 21 14h22c4 5 8 9 8 20c0 8 -7 24 -21 50l-50 89l-57 -85c-10 -14 -10 -36 -10 -45c0 -14 7 -22 11 -29c21 0 31 -2 31 -14c0 -8 -5 -14 -21 -14h-118c-16 0 -21 6 -21 14s3 14 29 14c19 13 44 35 76 82l67 100
l-62 110c-23 40 -37 65 -50 82h-39c-16 0 -21 6 -21 14s5 14 21 14h159c21 0 21 -6 21 -14s-5 -14 -21 -14h-8c-4 -5 -8 -9 -8 -20c0 -16 4 -25 12 -39l39 -68l48 71c5 7 5 17 5 24c0 14 -10 27 -13 32c-23 0 -33 2 -33 14c0 8 5 14 21 14h135c16 0 21 -6 21 -14
s-5 -14 -21 -14h-27c-21 -14 -37 -21 -63 -60l-59 -88l69 -126c25 -45 43 -81 62 -100h20c16 0 21 -6 21 -14z" />
    <glyph glyph-name="y" unicode="y" horiz-adv-x="481" 
d="M451 416c0 -8 -5 -14 -21 -14h-31c-20 -27 -31 -41 -55 -114l-124 -381c-38 -116 -104 -277 -257 -277c-59 0 -118 34 -118 92c0 21 15 42 41 42c18 0 37 -16 37 -36c0 -22 -20 -30 -33 -36c0 -24 32 -38 77 -38c106 0 176 94 212 206l50 155l-119 290
c-23 56 -37 79 -51 97h-44c-16 0 -21 6 -21 14s5 14 21 14h176c16 0 21 -6 21 -14s-5 -14 -21 -14h-23c-4 -2 -8 -8 -8 -16c0 -10 8 -42 17 -64l86 -205l61 187c10 29 15 50 15 60c0 18 -13 32 -20 38h-22c-16 0 -21 6 -21 14s5 14 21 14h133c16 0 21 -6 21 -14z" />
    <glyph glyph-name="z" unicode="z" horiz-adv-x="463" 
d="M410 19c0 -15 -9 -19 -24 -19h-318c-10 0 -26 1 -26 10c0 8 14 28 22 41l226 351h-135c-50 -24 -60 -81 -76 -81c-6 0 -7 5 -7 21v70c0 14 8 18 21 18h268c11 0 19 -3 19 -10c0 -5 -3 -12 -6 -17l-241 -375h188c56 36 62 92 79 92c7 0 10 -5 10 -18v-83z" />
    <glyph glyph-name="braceleft" unicode="{" horiz-adv-x="374" 
d="M335 -193c-100 4 -187 74 -187 170c0 14 11 56 17 86c7 35 11 58 11 84c0 56 -53 99 -110 117v24c48 21 110 56 110 117c0 18 -4 49 -11 84c-6 30 -17 70 -17 86c0 96 87 166 187 170v-25c-74 -17 -107 -79 -107 -136c0 -26 3 -43 7 -75c3 -24 7 -50 7 -69
c0 -111 -81 -143 -131 -164c50 -22 131 -57 131 -164c0 -19 -4 -45 -7 -69c-4 -32 -7 -49 -7 -75c0 -57 33 -119 107 -136v-25z" />
    <glyph glyph-name="bar" unicode="|" horiz-adv-x="216" 
d="M132 -250h-48v1000h48v-1000z" />
    <glyph glyph-name="braceright" unicode="}" horiz-adv-x="374" 
d="M308 264c-57 -18 -110 -61 -110 -117c0 -26 4 -49 11 -84c6 -30 17 -72 17 -86c0 -96 -87 -166 -187 -170v25c74 17 107 79 107 136c0 26 -3 43 -7 75c-3 24 -7 50 -7 69c0 107 81 142 131 164c-50 21 -131 53 -131 164c0 19 4 45 7 69c4 32 7 49 7 75
c0 57 -33 119 -107 136v25c100 -4 187 -74 187 -170c0 -16 -11 -56 -17 -86c-7 -35 -11 -66 -11 -84c0 -61 62 -96 110 -117v-24z" />
    <glyph glyph-name="asciitilde" unicode="~" 
d="M483 258c-12 -15 -79 -83 -140 -83s-84 25 -104 36c-19 11 -51 34 -80 34c-35 0 -66 -12 -100 -52l-22 20c29 44 78 82 129 82s66 -13 95 -31s49 -39 84 -39c50 0 80 21 116 54z" />
    <glyph glyph-name="exclamdown" unicode="&#xa1;" horiz-adv-x="204" 
d="M148 400c0 -23 -19 -41 -43 -41s-43 18 -43 41c0 25 20 44 43 44c24 0 43 -20 43 -44zM150 -208c0 -34 -18 -59 -43 -59s-45 24 -45 56c0 10 1 23 3 38c1 13 2 27 4 44l11 117l7 102l4 187h21l7 -171c1 -15 4 -49 9 -101c7 -72 11 -112 13 -120l5 -38c3 -22 4 -40 4 -55z
" />
    <glyph glyph-name="cent" unicode="&#xa2;" horiz-adv-x="389" 
d="M354 223c0 -88 -70 -122 -117 -122v-67c0 -12 0 -24 -14 -24s-14 12 -14 24v67c-68 3 -151 75 -151 190c0 141 103 206 151 206v28c0 10 0 25 14 25s14 -14 14 -24v-29c13 0 51 -14 58 -14c14 0 24 6 37 11l-10 -101c-21 40 -54 76 -85 76v-340c37 0 82 28 82 98
c0 24 -8 32 -8 47c0 10 3 15 11 15c19 0 32 -37 32 -66zM209 129v340c-31 0 -79 -50 -79 -178c0 -100 39 -162 79 -162z" />
    <glyph glyph-name="sterling" unicode="&#xa3;" horiz-adv-x="500" 
d="M459 118c0 -5 -1 -9 -3 -13l-52 -105h-338c13 24 79 106 79 184c0 34 -20 92 -22 100h-49c-9 0 -18 5 -18 14s9 14 18 14h41c-4 14 -36 80 -36 128c0 111 84 180 192 180c122 0 160 -65 160 -114c0 -34 -19 -65 -59 -65c-20 0 -43 14 -43 39s18 35 32 35
c20 0 33 -13 33 -30v-15c12 11 13 22 13 36c0 42 -37 90 -133 90c-20 0 -51 -8 -65 -20c-19 -17 -44 -49 -44 -118c0 -59 25 -125 28 -146h119c9 0 19 -5 19 -14s-10 -14 -19 -14h-115c1 -6 2 -17 2 -24c0 -85 -35 -135 -66 -202h208c50 0 92 53 98 65c2 4 7 6 11 6
c6 0 9 -6 9 -11z" />
    <glyph glyph-name="fraction" unicode="&#x2044;" horiz-adv-x="195" 
d="M301 705l-386 -720h-42l386 720h42z" />
    <glyph glyph-name="yen" unicode="&#xa5;" 
d="M540 595c0 -9 -5 -14 -16 -14h-36c-31 -19 -50 -37 -67 -66l-74 -123h80c16 0 19 -7 19 -17c0 -11 -5 -16 -19 -16h-99l-49 -82h148c16 0 19 -7 19 -17c0 -11 -6 -16 -19 -16h-148v-138c0 -46 2 -57 17 -81h56c8 0 13 -5 13 -12c0 -9 -5 -13 -15 -13h-212
c-11 0 -16 4 -16 12c0 3 1 5 2 7c3 4 5 6 8 6h55c18 23 21 36 21 85v134h-137c-26 0 -30 2 -30 16c0 11 3 17 14 17h153l-44 82h-93c-25 0 -30 3 -30 16c0 10 3 17 19 17h88l-58 109c-23 44 -28 52 -36 63c-6 9 -10 12 -22 17h-37c-12 0 -16 3 -16 12c0 7 6 12 16 12h202
c11 0 17 -4 17 -13c0 -6 -6 -11 -15 -11h-53c-4 -9 -5 -13 -5 -18c0 -10 3 -17 19 -48l108 -207l129 217c2 9 4 16 4 21c0 11 -4 18 -18 35h-46c-14 0 -19 4 -19 13c0 7 6 11 16 11h195c7 0 11 -4 11 -10z" />
    <glyph glyph-name="florin" unicode="&#x192;" 
d="M515 515c0 -37 -19 -61 -47 -61c-24 0 -44 20 -44 42s15 36 38 36c6 0 14 -1 24 -3c1 5 1 8 1 10c0 10 -6 26 -17 36c-20 19 -55 24 -80 24c-63 0 -68 -52 -77 -117l-14 -103h62c18 0 22 -3 22 -14s-4 -14 -20 -14h-68l-50 -362c-11 -82 -24 -130 -51 -154
c-28 -25 -53 -32 -102 -32c-79 0 -123 40 -123 94c0 34 23 60 53 60c26 0 45 -17 45 -42c0 -26 -22 -47 -48 -47c-8 0 -11 0 -19 5c21 -34 38 -48 94 -48c24 0 46 13 57 47c12 38 17 81 22 120c0 0 5 41 49 359h-53c-16 0 -22 4 -22 15s3 13 20 13h59l10 74
c11 79 20 110 43 133c21 21 60 34 101 34c87 0 135 -36 135 -105z" />
    <glyph glyph-name="section" unicode="&#xa7;" horiz-adv-x="483" 
d="M428 292c0 -72 -68 -130 -136 -171l47 -39c31 -26 53 -61 53 -94c0 -93 -75 -134 -159 -134c-51 0 -83 21 -96 21c-17 0 -35 -21 -42 -21c-4 0 -7 5 -7 10v111c0 11 3 16 8 16s10 -8 15 -16c13 -24 27 -48 42 -63c21 -21 48 -38 84 -38c51 0 105 30 105 80
c0 30 -34 62 -74 94l-89 71c-59 47 -104 93 -104 153c0 72 67 133 128 168c-53 52 -92 88 -92 134c0 63 54 131 158 131c42 0 61 -17 67 -17c19 0 38 17 49 17c5 0 12 -4 12 -10v-85c0 -7 -5 -14 -11 -14s-9 5 -13 13c-8 15 -20 35 -33 46c-16 14 -35 30 -71 30
c-78 0 -102 -47 -102 -84c0 -27 21 -56 68 -95l111 -92c43 -35 82 -74 82 -122zM378 247c0 43 -30 72 -85 118l-73 62c-40 -25 -95 -63 -95 -113c0 -48 28 -82 81 -125l70 -56c38 21 102 70 102 114z" />
    <glyph glyph-name="currency" unicode="&#xa4;" horiz-adv-x="715" 
d="M567 173c-9 -9 -17 -18 -26 -27c-21 22 -43 44 -65 66c-31 -26 -73 -43 -119 -43c-32 0 -80 10 -118 43l-66 -66c-8 9 -16 18 -25 27c22 21 45 43 67 64c-23 29 -42 69 -42 117s17 90 42 117c-22 22 -45 43 -67 65c9 9 17 18 25 27l66 -66c41 32 86 42 118 42
c38 0 86 -14 118 -42c22 22 45 44 66 66c9 -9 17 -18 26 -27c-22 -22 -45 -43 -67 -65c28 -33 42 -75 42 -117c0 -47 -17 -86 -42 -117c22 -21 45 -43 67 -64zM506 355c0 89 -74 148 -147 148c-87 0 -150 -70 -150 -148c0 -80 67 -150 148 -150c82 0 149 69 149 150z" />
    <glyph glyph-name="quotesingle" unicode="'" horiz-adv-x="204" 
d="M137 647c0 -22 -14 -102 -22 -138h-26c-10 53 -22 106 -22 138c0 36 13 58 35 58s35 -20 35 -58z" />
    <glyph glyph-name="quotedblleft" unicode="&#x201c;" horiz-adv-x="315" 
d="M274 607c0 -25 -19 -45 -47 -45c-23 0 -46 23 -46 54c0 45 38 89 68 89c6 0 9 -6 9 -11c0 -10 -31 -9 -31 -42c19 -3 47 -18 47 -45zM137 607c0 -25 -19 -45 -47 -45c-23 0 -46 23 -46 54c0 45 38 89 68 89c6 0 9 -6 9 -11c0 -10 -31 -9 -31 -42c19 -3 47 -18 47 -45z
" />
    <glyph glyph-name="guillemotleft" unicode="&#xab;" horiz-adv-x="278" 
d="M233 101l-11 -12l-93 126l93 117l11 -12l-57 -105zM148 101l-11 -12l-93 126l93 117l11 -12l-57 -105z" />
    <glyph glyph-name="guilsinglleft" unicode="&#x2039;" horiz-adv-x="204" 
d="M148 101l-11 -12l-93 126l93 117l11 -12l-57 -105z" />
    <glyph glyph-name="guilsinglright" unicode="&#x203a;" horiz-adv-x="204" 
d="M160 215l-93 -126l-11 12l57 114l-57 105l11 12z" />
    <glyph glyph-name="endash" unicode="&#x2013;" 
d="M519 211h-519v44h519v-44z" />
    <glyph glyph-name="dagger" unicode="&#x2020;" horiz-adv-x="483" 
d="M424 487c0 -20 -20 -38 -45 -38c-41 0 -87 16 -120 24c5 -40 15 -101 22 -140c-7 -92 -23 -166 -23 -261v-184h-34v184c0 100 -15 163 -23 261c8 34 20 96 22 140c-28 -6 -73 -24 -114 -24c-13 0 -52 10 -52 38c0 26 28 38 52 38c33 0 82 -14 113 -19
c-3 47 -21 116 -21 163c0 16 21 36 40 36s41 -20 41 -36c1 -44 -15 -120 -23 -163c39 5 75 19 115 19c32 0 50 -16 50 -38z" />
    <glyph glyph-name="daggerdbl" unicode="&#x2021;" horiz-adv-x="483" 
d="M424 73c0 -22 -18 -38 -50 -38c-36 0 -75 12 -115 19c8 -45 23 -128 23 -163c0 -25 -21 -36 -41 -36c-25 0 -40 20 -40 36c0 47 18 116 21 163c-32 -7 -80 -19 -113 -19c-24 0 -52 12 -52 38c0 28 31 38 52 38c41 0 86 -18 114 -24c-2 44 -14 66 -22 100
c10 32 20 76 25 93c-7 39 -20 64 -25 93c8 34 20 56 22 100c-28 -6 -73 -24 -114 -24c-13 0 -52 10 -52 38c0 26 28 38 52 38c33 0 82 -14 113 -19c-3 47 -21 116 -21 163c0 16 21 36 40 36s41 -20 41 -36c1 -44 -15 -120 -23 -163c39 5 75 19 115 19c32 0 50 -16 50 -38
c0 -23 -22 -38 -41 -38c-41 0 -87 15 -124 24c5 -40 15 -61 22 -100c-7 -31 -17 -55 -25 -93c4 -19 17 -57 25 -93c-7 -39 -17 -60 -22 -100c33 8 79 24 120 24c25 0 45 -18 45 -38z" />
    <glyph glyph-name="periodcentered" unicode="&#xb7;" horiz-adv-x="204" 
d="M146 333c0 -24 -19 -43 -43 -43s-43 19 -43 43s19 43 43 43s43 -19 43 -43z" />
    <glyph glyph-name="paragraph" unicode="&#xb6;" horiz-adv-x="723" 
d="M687 -236c0 -8 -3 -14 -18 -14h-353c-15 0 -21 5 -21 14s6 14 21 14h51c24 27 24 55 24 124v353h-103c-172 0 -243 87 -243 215c0 203 170 215 243 215h358c15 0 21 -6 21 -14c0 -9 -6 -14 -21 -14h-55v-755c0 -69 0 -97 24 -124h51c15 0 21 -5 21 -14zM391 283v374h-73
c-59 0 -104 -4 -130 -22s-65 -69 -65 -165s39 -147 65 -165s71 -22 130 -22h73zM526 -222v879h-71v-879h71z" />
    <glyph glyph-name="bullet" unicode="&#x2022;" horiz-adv-x="500" 
d="M369 308c0 -66 -53 -119 -119 -119s-119 53 -119 119s53 119 119 119s119 -53 119 -119z" />
    <glyph glyph-name="quotesinglbase" unicode="&#x201a;" horiz-adv-x="204" 
d="M152 21c0 -19 -11 -43 -28 -58c-19 -18 -36 -29 -44 -29c-5 0 -9 4 -9 9c0 6 4 10 16 17c14 9 17 14 18 28c-32 10 -44 22 -44 45c0 24 18 42 42 42c28 0 49 -23 49 -54z" />
    <glyph glyph-name="quotedblbase" unicode="&#x201e;" horiz-adv-x="315" 
d="M272 23c0 -22 -10 -48 -25 -64c-14 -16 -31 -27 -43 -27c-6 0 -11 5 -11 10s2 7 16 13c11 6 16 14 16 28v3c-34 10 -46 21 -46 45c0 25 20 44 45 44c28 0 48 -21 48 -52zM136 23c0 -22 -10 -48 -25 -64c-14 -16 -32 -27 -43 -27c-6 0 -11 5 -11 10s2 7 15 13
c12 6 17 14 17 28v3c-34 10 -46 21 -46 45c0 25 20 44 45 44c28 0 48 -21 48 -52z" />
    <glyph glyph-name="quotedblright" unicode="&#x201d;" horiz-adv-x="315" 
d="M276 651c0 -45 -38 -89 -68 -89c-6 0 -9 6 -9 11c0 10 31 9 31 42c-19 3 -47 18 -47 45c0 25 19 45 47 45c23 0 46 -23 46 -54zM139 651c0 -45 -38 -89 -68 -89c-6 0 -9 6 -9 11c0 10 31 9 31 42c-19 3 -47 18 -47 45c0 25 19 45 47 45c23 0 46 -23 46 -54z" />
    <glyph glyph-name="guillemotright" unicode="&#xbb;" horiz-adv-x="278" 
d="M234 215l-93 -126l-11 12l57 114l-57 105l11 12zM149 215l-93 -126l-11 12l57 114l-57 105l11 12z" />
    <glyph glyph-name="ellipsis" unicode="&#x2026;" horiz-adv-x="612" 
d="M554 28c0 -24 -19 -43 -43 -43s-43 19 -43 43s19 43 43 43s43 -19 43 -43zM350 28c0 -24 -19 -43 -43 -43s-43 19 -43 43s19 43 43 43s43 -19 43 -43zM146 28c0 -24 -19 -43 -43 -43s-43 19 -43 43s19 43 43 43s43 -19 43 -43z" />
    <glyph glyph-name="perthousand" unicode="&#x2030;" horiz-adv-x="1226" 
d="M1163 185c0 -109 -38 -197 -150 -197s-150 88 -150 197c0 110 38 198 150 198s150 -88 150 -198zM791 185c0 -109 -38 -197 -150 -197s-150 88 -150 197c0 110 38 198 150 198s150 -88 150 -198zM642 705l-386 -723h-42l386 723h42zM363 506c0 -109 -38 -197 -150 -197
s-150 88 -150 197c0 110 38 198 150 198s150 -88 150 -198zM1093 185c0 113 -19 139 -33 155c-8 10 -29 17 -47 17s-39 -7 -47 -17c-14 -16 -33 -42 -33 -155c0 -112 19 -138 33 -154c8 -10 29 -17 47 -17s39 7 47 17c14 16 33 42 33 154zM721 185c0 113 -19 139 -33 155
c-8 10 -29 17 -47 17s-39 -7 -47 -17c-14 -16 -33 -42 -33 -155c0 -112 19 -138 33 -154c8 -10 29 -17 47 -17s39 7 47 17c14 16 33 42 33 154zM293 506c0 113 -19 139 -33 155c-8 10 -29 17 -47 17s-39 -7 -47 -17c-14 -16 -33 -42 -33 -155c0 -112 19 -138 33 -154
c8 -10 29 -17 47 -17s39 7 47 17c14 16 33 42 33 154z" />
    <glyph glyph-name="questiondown" unicode="&#xbf;" horiz-adv-x="500" 
d="M324 401c0 -22 -19 -41 -42 -41c-22 0 -41 17 -41 39c0 25 19 45 41 45c23 0 42 -19 42 -43zM443 -135c0 -77 -81 -137 -185 -137c-113 0 -194 74 -194 177c0 56 23 107 61 135l81 59c50 37 71 90 73 188h24c1 -22 2 -32 2 -44c0 -44 -7 -78 -19 -108
c-13 -31 -26 -47 -67 -81c-32 -27 -46 -43 -57 -65c-12 -25 -19 -57 -19 -92c0 -53 11 -88 40 -125c35 -15 56 -19 90 -19c82 0 149 48 149 107c0 12 -1 15 -6 24l-7 -6l-8 -12c-7 -10 -18 -16 -30 -16c-22 0 -36 15 -36 37c0 27 18 44 47 44c37 0 61 -26 61 -66z" />
    <glyph glyph-name="grave" unicode="`" horiz-adv-x="241" 
d="M137 492h-33l-93 100h61z" />
    <glyph glyph-name="acute" unicode="&#xb4;" horiz-adv-x="241" 
d="M225 592l-93 -100h-33l65 100h61z" />
    <glyph glyph-name="circumflex" unicode="&#x2c6;" horiz-adv-x="241" 
d="M220 492h-33l-67 67l-67 -67h-33l67 100h66z" />
    <glyph glyph-name="tilde" unicode="&#x2dc;" horiz-adv-x="241" 
d="M213 566c-3 -20 -11 -55 -55 -55c-29 0 -51 19 -75 19c-13 0 -19 -9 -23 -18h-33c3 20 11 55 55 55c29 0 51 -19 75 -19c13 0 19 9 23 18h33z" />
    <glyph glyph-name="macron" unicode="&#xaf;" horiz-adv-x="288" 
d="M237 523h-185v33h185v-33z" />
    <glyph glyph-name="breve" unicode="&#x2d8;" horiz-adv-x="288" 
d="M236 578c-8 -56 -41 -88 -92 -88s-84 32 -92 88h35c7 -38 24 -55 57 -55s51 17 57 55h35z" />
    <glyph glyph-name="dotaccent" unicode="&#x2d9;" horiz-adv-x="241" 
d="M164 543c0 -24 -19 -43 -43 -43s-44 19 -44 43s19 43 43 43s44 -19 44 -43z" />
    <glyph glyph-name="dieresis" unicode="&#xa8;" horiz-adv-x="241" 
d="M231 543c0 -24 -19 -43 -43 -43s-43 19 -43 43s19 43 43 43s43 -19 43 -43zM95 543c0 -24 -19 -43 -43 -43s-43 19 -43 43s19 43 43 43s43 -19 43 -43z" />
    <glyph glyph-name="ring" unicode="&#x2da;" horiz-adv-x="241" 
d="M196 566c0 -42 -35 -76 -76 -76s-76 34 -76 76s35 76 76 76s76 -34 76 -76zM163 566c0 25 -18 43 -43 43s-43 -18 -43 -43s18 -43 43 -43s43 18 43 43z" />
    <glyph glyph-name="cedilla" unicode="&#xb8;" horiz-adv-x="288" 
d="M223 -89c0 -43 -36 -71 -92 -71c-26 0 -38 3 -65 14l11 28c23 -9 33 -12 52 -12c34 0 54 15 54 41c0 19 -12 24 -50 24h-15l31 72h32l-18 -43c41 -3 60 -19 60 -53z" />
    <glyph glyph-name="hungarumlaut" unicode="&#x2dd;" horiz-adv-x="288" 
d="M258 597l-92 -105h-33l65 105h60zM155 597l-92 -105h-33l65 105h60z" />
    <glyph glyph-name="ogonek" unicode="&#x2db;" horiz-adv-x="288" 
d="M217 -122c0 -14 -32 -28 -65 -28c-47 0 -81 28 -81 66c0 36 21 70 68 108l14 -11c-29 -27 -43 -57 -43 -89c0 -31 16 -48 45 -48c6 0 16 2 24 4c11 4 17 6 19 6c2 1 4 1 7 1c6 0 12 -4 12 -9z" />
    <glyph glyph-name="caron" unicode="&#x2c7;" horiz-adv-x="288" 
d="M244 592l-67 -100h-66l-67 100h33l67 -67l67 67h33z" />
    <glyph glyph-name="emdash" unicode="&#x2014;" horiz-adv-x="1000" 
d="M1000 211h-1000v45h1000v-45z" />
    <glyph glyph-name="AE" unicode="&#xc6;" horiz-adv-x="880" 
d="M840 16c0 -9 -6 -16 -14 -16h-500c-12 0 -18 5 -18 14c0 10 5 13 20 13h53c19 21 22 38 22 111v84h-210l-57 -107c-12 -22 -16 -35 -16 -48c0 -17 7 -27 27 -40h57c6 0 10 -5 10 -12c0 -9 -5 -15 -12 -15h-214c-8 0 -13 6 -13 14c0 10 4 13 16 13h30c12 9 21 17 26 22
c11 11 29 36 42 58l302 534c-3 8 -4 10 -12 17h-53c-12 0 -18 5 -18 15c0 9 4 12 20 12h457c25 0 31 -1 35 -6c3 -2 4 -6 5 -11v-27v-110c0 -8 -5 -13 -12 -13c-8 0 -12 5 -12 13v39c0 31 -69 80 -95 88h-223v-295h104c25 8 35 19 54 52v30c0 9 4 14 11 14c8 0 13 -6 13 -14
v-190c0 -9 -3 -13 -12 -13c-8 0 -12 5 -12 13v27c-17 30 -23 36 -54 56h-104v-311h246c49 32 89 46 89 106v44c0 7 4 11 11 11s10 -3 10 -9v-144zM403 248v345l-196 -345h196z" />
    <glyph glyph-name="ordfeminine" unicode="&#xaa;" horiz-adv-x="370" 
d="M349 349c0 -5 -3 -11 -9 -18c-16 -19 -38 -30 -60 -30c-27 0 -45 18 -52 54c-34 -35 -72 -54 -109 -54c-50 0 -88 31 -88 72c0 69 66 97 116 109c25 6 70 29 82 47c0 28 -3 44 -15 58c-6 7 -14 17 -57 17c-19 0 -32 0 -46 -8c-6 -3 -17 -14 -17 -28c20 -4 29 -13 29 -28
c0 -16 -15 -30 -34 -30c-22 0 -38 16 -38 37c0 41 47 73 107 73c42 0 76 -12 99 -35c23 -22 27 -39 27 -97v-117c0 -19 1 -31 6 -37c3 -4 10 -6 14 -6c8 0 19 8 27 20c5 8 7 10 11 10s7 -4 7 -9zM228 389v114c-21 -13 -42 -25 -65 -34c-46 -17 -76 -34 -76 -79
c0 -33 20 -67 54 -67c32 0 61 27 87 66z" />
    <glyph glyph-name="Lslash" unicode="&#x141;" horiz-adv-x="537" 
d="M499 16c0 -7 -5 -16 -14 -16h-438c-15 0 -21 6 -21 14c0 9 6 14 21 14h51c24 27 24 55 24 124v140l-51 -37c-3 -2 -8 -3 -11 -3c-9 0 -12 10 -12 17c0 4 3 7 6 9c6 4 33 23 68 49v206c0 69 0 97 -24 124h-51c-15 0 -21 5 -21 14c0 8 6 14 21 14h228c15 0 21 -6 21 -14
c0 -9 -6 -14 -21 -14h-51c-24 -27 -24 -55 -24 -124v-151c65 45 117 86 127 86c9 0 11 -9 11 -17c0 -4 -2 -8 -6 -10l-132 -94v-319h186c57 33 89 88 89 101v21c0 16 8 18 12 18c7 0 12 -2 12 -18v-134z" />
    <glyph glyph-name="Oslash" unicode="&#xd8;" horiz-adv-x="630" 
d="M578 349c0 -208 -113 -368 -260 -368c-63 0 -122 26 -166 74l-51 -90l-28 18l54 95c-56 85 -74 183 -74 282c0 196 113 344 261 344c57 0 105 -17 144 -54l38 67l27 -18l-40 -69c65 -81 95 -168 95 -281zM435 611c-23 43 -67 66 -119 66c-86 0 -117 -47 -143 -113
c-23 -58 -32 -130 -32 -223c0 -74 10 -168 22 -200zM490 337c0 107 -12 187 -37 241l-277 -481c13 -23 12 -30 36 -55c22 -23 56 -36 99 -36c44 0 76 7 110 41c48 48 69 155 69 290z" />
    <glyph glyph-name="OE" unicode="&#x152;" horiz-adv-x="897" 
d="M857 17c0 -15 -10 -17 -36 -17h-416c-7 0 -26 -8 -35 -10c-22 -5 -44 -8 -66 -8c-186 0 -252 227 -252 377c0 145 82 345 253 345c35 0 85 -19 100 -19h397c38 0 40 -2 40 -44v-113c0 -6 -5 -11 -11 -11c-10 0 -12 11 -12 23v30c-8 12 -15 25 -24 36
c-13 16 -49 52 -71 52h-224v-295h102c21 0 48 32 56 52v23c0 14 1 21 12 21c8 0 12 -7 12 -14v-190c0 -8 -2 -13 -11 -13c-8 0 -13 6 -13 16v24c-17 30 -24 37 -53 56h-105v-310h247c49 31 66 52 88 105v30c0 20 2 25 12 25c7 0 10 -4 10 -11v-160zM422 138v425
c0 31 -7 61 -20 89c-33 19 -54 25 -93 25c-38 0 -58 -4 -88 -30c-68 -58 -81 -219 -81 -303c0 -81 10 -249 71 -308c30 -29 59 -30 99 -30c34 0 59 7 90 22c21 35 22 70 22 110z" />
    <glyph glyph-name="ordmasculine" unicode="&#xba;" horiz-adv-x="370" 
d="M314 460c0 -93 -61 -160 -130 -160s-129 61 -129 160c0 100 60 160 129 160s130 -60 130 -160zM257 465c0 70 -19 107 -35 124c-12 12 -28 14 -38 14s-27 -3 -38 -14c-15 -17 -33 -63 -33 -133s18 -108 33 -125c11 -11 28 -14 38 -14s26 2 38 14c16 17 35 64 35 134z" />
    <glyph glyph-name="ae" unicode="&#xe6;" horiz-adv-x="700" 
d="M649 232c0 -12 -7 -13 -20 -13h-252c-1 -9 -1 -19 -1 -28c0 -59 10 -124 52 -165c8 -8 35 -12 57 -12c63 0 105 32 108 96c1 25 8 25 32 25c10 0 12 -3 12 -13c0 -78 -84 -132 -155 -132c-67 0 -128 40 -158 99c-40 -48 -103 -102 -169 -102c-62 0 -117 43 -117 108
s51 114 109 135c55 20 117 36 155 83c0 74 -18 107 -97 107c-25 0 -40 -2 -62 -15c-16 -9 -16 -19 -21 -36c22 -5 38 -16 38 -40c0 -25 -20 -43 -45 -43c-30 0 -51 24 -51 53c0 71 83 104 143 104c59 0 114 -19 148 -69c32 39 78 68 130 68c88 0 139 -94 156 -168
c3 -13 8 -28 8 -42zM573 244c0 74 -17 137 -38 156c-16 14 -33 18 -52 18c-14 0 -36 -4 -52 -18c-21 -19 -51 -72 -51 -156h193zM300 113v162c-28 -17 -55 -36 -86 -48c-22 -8 -59 -22 -71 -32c-28 -23 -31 -44 -31 -79c0 -52 39 -101 72 -101c35 0 88 49 116 98z" />
    <glyph glyph-name="dotlessi" unicode="&#x131;" horiz-adv-x="296" 
d="M283 13c0 -9 -8 -13 -20 -13h-219c-12 0 -18 4 -18 13c0 11 6 15 18 15h35c39 10 40 45 40 104v166c0 59 -1 94 -40 104h-29c-14 0 -24 2 -24 14c0 11 7 14 24 14h120c21 0 21 -7 21 -25v-273c0 -59 1 -94 40 -104h32c12 0 20 -4 20 -15z" />
    <glyph glyph-name="lslash" unicode="&#x142;" horiz-adv-x="296" 
d="M281 13c0 -9 -8 -13 -20 -13h-219c-12 0 -18 4 -18 13c0 11 6 15 18 15h35c39 10 40 45 40 104v173l-49 -34c-3 -2 -6 -4 -10 -4c-8 0 -16 7 -16 15c0 4 1 7 4 10l71 56v205c0 59 -1 94 -40 104h-29c-14 0 -24 2 -24 14c0 11 7 14 24 14h124c13 0 17 -7 17 -21v-259
l48 36c3 3 7 4 10 4c8 0 15 -7 15 -16c0 -4 -1 -7 -4 -9l-69 -57v-231c0 -59 1 -94 40 -104h32c12 0 20 -4 20 -15z" />
    <glyph glyph-name="oslash" unicode="&#xf8;" horiz-adv-x="444" 
d="M395 216c0 -131 -71 -231 -173 -231c-38 0 -73 14 -103 43l-31 -51l-21 13l33 58c-35 45 -51 102 -51 169c0 129 74 228 173 228c35 0 70 -14 89 -32l24 39l22 -13l-25 -44c42 -42 63 -109 63 -179zM288 374c-5 11 -9 18 -18 27c-13 13 -26 20 -47 20
c-24 0 -42 -9 -50 -20c-43 -55 -48 -135 -48 -187c0 -34 6 -81 11 -104zM319 215c0 43 -6 92 -17 129l-155 -270c6 -17 15 -34 27 -46c14 -14 28 -19 48 -19c7 0 29 0 47 18c39 39 50 136 50 188z" />
    <glyph glyph-name="oe" unicode="&#x153;" horiz-adv-x="728" 
d="M677 232c0 -11 -5 -13 -21 -13h-252c0 -82 2 -143 52 -193c11 -11 37 -17 57 -17c58 0 108 42 108 101c0 21 3 22 20 22h11c9 0 12 0 12 -10c0 -70 -73 -137 -154 -137c-62 0 -112 33 -150 89c-38 -59 -82 -89 -138 -89c-98 0 -173 96 -173 230c0 129 71 230 173 230
c58 0 111 -34 144 -95c38 59 90 95 146 95c100 0 165 -150 165 -213zM593 244v41c0 42 -2 93 -27 118c-13 13 -32 18 -51 18c-17 0 -38 -4 -48 -14c-55 -55 -48 -93 -60 -163h186zM319 216c0 64 -15 149 -48 185c-14 16 -33 20 -49 20c-21 0 -37 -6 -51 -23
c-38 -45 -46 -131 -46 -182c0 -73 13 -143 46 -185c11 -14 31 -22 53 -22c19 0 35 8 45 18c38 40 50 122 50 189z" />
    <glyph glyph-name="germandbls" unicode="&#xdf;" 
d="M460 201c0 -148 -80 -216 -174 -216c-41 0 -55 10 -55 21c0 7 5 13 11 13c12 0 10 -10 48 -10c11 0 38 4 52 18c19 19 42 76 42 165c0 129 -56 190 -71 211c-8 -3 -25 -7 -30 -7c-6 0 -10 6 -10 12c0 13 33 15 48 27c20 31 33 68 33 105c0 66 -16 84 -35 103
c-14 14 -41 18 -52 18s-39 -3 -52 -18c-20 -21 -38 -43 -38 -125v-518h-150c-10 0 -18 2 -18 14c0 10 5 14 18 14h54c22 28 24 41 24 144v340c0 109 58 173 163 173c73 0 149 -42 149 -147c0 -65 -46 -102 -64 -116c28 -22 107 -76 107 -221z" />
    <glyph glyph-name="logicalnot" unicode="&#xac;" 
d="M483 138h-48v134h-398v52h446v-186z" />
    <glyph glyph-name="mu" unicode="&#xb5;" 
d="M488 419c0 -9 -6 -14 -18 -14h-53c-20 -36 -21 -61 -21 -100v-22v-171c0 -40 7 -69 21 -84h47c18 0 21 -2 21 -13c0 -13 -2 -15 -15 -15h-118c-24 0 -27 6 -27 28c-36 -20 -70 -39 -112 -39c-14 0 -21 1 -38 6v-250c0 -18 0 -25 -21 -25h-99c-17 0 -24 3 -24 14
c0 12 10 14 24 14h8c39 10 40 45 40 104v442c0 38 0 93 -22 111h-58c-7 0 -13 7 -13 14c0 9 5 14 13 14h131c15 0 21 -3 21 -19v-326c0 -44 31 -71 50 -71c38 0 59 11 100 47v219c0 69 -1 95 -23 122h-48c-17 0 -23 4 -23 15c0 8 5 13 17 13h222c14 0 18 -3 18 -14z" />
    <glyph glyph-name="trademark" unicode="&#x2122;" horiz-adv-x="681" 
d="M657 674c0 -9 -6 -11 -14 -11h-27c-8 -5 -9 -14 -9 -45v-201c0 -29 1 -39 8 -49h21c7 0 14 -3 14 -11c0 -7 -6 -11 -14 -11h-102c-7 0 -14 3 -14 11s7 11 14 11h21c8 10 8 20 8 49v210l-82 -249c-2 -6 -6 -25 -16 -25c-3 0 -6 2 -9 9c-1 3 -3 9 -6 16l-79 241v-206
c0 -31 1 -40 9 -45h27c8 0 14 -3 14 -11c0 -9 -8 -11 -14 -11h-94c-6 0 -14 2 -14 11c0 8 6 11 14 11h27c8 5 9 14 9 45v210c0 27 -1 35 -9 40h-27c-8 0 -14 2 -14 11s8 11 14 11h73c7 0 12 -2 21 -29l70 -216l72 216c9 27 13 29 21 29h73c6 0 14 -2 14 -11zM282 608
c0 -9 -4 -12 -10 -12c-5 0 -10 3 -10 12c0 7 -14 40 -36 55h-52v-246c0 -29 0 -39 8 -49h20c8 0 14 -3 14 -11c0 -7 -6 -11 -14 -11h-101c-8 0 -15 4 -15 11c0 8 7 11 15 11h20c8 10 8 20 8 49v246h-52c-23 -15 -36 -48 -36 -55c0 -9 -6 -12 -10 -12c-7 0 -10 3 -10 12v64
c0 8 4 13 12 13h237c8 0 12 -5 12 -13v-64z" />
    <glyph glyph-name="Eth" unicode="&#xd0;" horiz-adv-x="685" 
d="M639 343c0 -221 -127 -343 -338 -343h-248c-15 0 -21 6 -21 14c0 9 6 14 21 14h51c24 27 24 55 24 124v186h-70c-16 0 -20 2 -20 13c0 10 6 15 18 15h72v167c0 69 0 97 -24 124h-51c-15 0 -21 5 -21 14c0 8 6 14 21 14h248c211 0 338 -122 338 -342zM553 343
c0 160 -85 264 -121 283c-35 18 -70 31 -161 31h-65v-291h141c13 0 18 -5 18 -15c0 -11 -4 -13 -20 -13h-139v-310h65c91 0 126 13 161 32c36 19 121 123 121 283z" />
    <glyph glyph-name="onehalf" unicode="&#xbd;" horiz-adv-x="852" 
d="M744 293c0 -31 -27 -64 -64 -81l-59 -27c-33 -15 -60 -34 -82 -58c-21 -23 -28 -37 -37 -76h167c11 0 17 6 24 10c3 2 7 5 12 5c6 0 10 -3 10 -9s-6 -19 -9 -24c-8 -14 -13 -24 -26 -33h-196c-9 0 -13 6 -13 15c0 69 36 127 107 173c40 27 99 58 99 114
c0 20 -6 40 -27 58c-14 12 -34 14 -54 14c-54 0 -103 -32 -103 -63c0 -11 2 -15 6 -18c-1 2 -1 3 -1 4c0 13 12 23 26 23c15 0 28 -12 28 -27c0 -17 -16 -29 -36 -29c-27 0 -47 18 -47 44c0 49 60 88 131 88c75 0 144 -46 144 -103zM577 705l-386 -720h-42l386 720h42z
M224 320c0 -8 -5 -12 -14 -12h-118c-7 0 -12 4 -12 11c0 8 5 11 12 11h19c8 9 11 14 13 22c0 6 1 10 1 33v259c0 17 -1 23 -8 32h-21c-9 0 -16 2 -16 10c0 7 6 9 14 9h79c9 0 9 -5 9 -19v-290c0 -38 2 -45 16 -56h14c7 0 12 -3 12 -10z" />
    <glyph glyph-name="plusminus" unicode="&#xb1;" 
d="M483 205h-199v-185h-48v185h-199v52h199v198h48v-198h199v-52zM483 -85h-446v52h446v-52z" />
    <glyph glyph-name="Thorn" unicode="&#xde;" horiz-adv-x="648" 
d="M612 347c0 -83 -56 -159 -136 -176c-29 -6 -82 -9 -164 -9h-106v-36c0 -68 5 -83 28 -99h51c13 0 19 -5 19 -15s-3 -12 -19 -12h-234c-11 0 -14 3 -14 14c0 9 5 13 18 13h53c19 22 21 34 21 99v420c0 64 -5 84 -26 112h-48c-13 0 -20 5 -20 14c0 10 4 13 20 13h224
c16 0 20 -3 20 -13c0 -9 -7 -14 -20 -14h-48c-16 -20 -25 -23 -25 -107h91c113 0 146 -4 196 -26c77 -33 119 -101 119 -178zM529 356c0 96 -34 130 -60 148s-71 19 -130 19h-133v-334h133c59 0 104 1 130 19s60 52 60 148z" />
    <glyph glyph-name="onequarter" unicode="&#xbc;" horiz-adv-x="852" 
d="M753 104h-1c0 -8 0 -16 -11 -16h-11h-50v-27c0 -17 2 -40 15 -40h29c8 0 13 -4 13 -11c0 -6 -5 -10 -13 -10h-147c-7 0 -13 4 -13 10c0 7 6 11 13 11h28c15 0 17 21 17 35v32h-189c-9 0 -16 2 -16 9c0 6 6 13 9 17l184 268c7 10 10 14 25 14h34c7 0 11 -5 11 -13v-274h21
c7 0 14 10 22 19c3 5 15 22 21 22s9 -6 9 -9v-37zM596 705l-386 -720h-42l386 720h42zM243 320c0 -8 -5 -12 -14 -12h-118c-7 0 -12 4 -12 11c0 8 5 11 12 11h19c8 9 11 14 13 22c0 6 1 10 1 33v259c0 17 -1 23 -8 32h-21c-9 0 -16 2 -16 10c0 7 6 9 14 9h79c9 0 9 -5 9 -19
v-290c0 -38 2 -45 16 -56h14c7 0 12 -3 12 -10zM622 109v247l-171 -247h171z" />
    <glyph glyph-name="divide" unicode="&#xf7;" 
d="M306 370c0 -23 -20 -44 -45 -43c-24 0 -44 20 -44 45c0 24 20 43 44 43c25 0 45 -20 45 -45zM483 205h-446v52h446v-52zM306 93c0 -25 -20 -45 -45 -45c-24 0 -44 20 -44 44c0 23 20 42 44 42c25 0 45 -19 45 -41z" />
    <glyph glyph-name="brokenbar" unicode="&#xa6;" horiz-adv-x="216" 
d="M132 325h-48v350h48v-350zM132 -175h-48v350h48v-350z" />
    <glyph glyph-name="degree" unicode="&#xb0;" horiz-adv-x="370" 
d="M311 494c0 -75 -56 -126 -126 -126s-126 51 -126 125c0 75 56 127 126 127s126 -52 126 -126zM273 494c0 57 -34 90 -88 90s-88 -33 -88 -90c0 -58 35 -90 89 -90s87 32 87 90z" />
    <glyph glyph-name="thorn" unicode="&#xfe;" horiz-adv-x="500" 
d="M462 224c0 -136 -66 -236 -157 -236c-42 0 -69 15 -109 57v-294c0 -28 -2 -31 -26 -31h-104c-12 0 -17 3 -17 12c0 8 8 14 17 14h36c6 7 10 13 11 15c9 19 13 57 13 123v665c0 59 -5 84 -23 109h-50c-16 0 -23 4 -23 14s4 13 24 13h119h13c8 0 10 -6 10 -26v-284
c36 50 67 69 111 69c91 0 155 -92 155 -220zM389 216c0 104 -28 175 -44 190c-12 12 -24 15 -40 15c-52 0 -83 -43 -109 -105v-223c24 -45 55 -84 109 -84c10 0 30 3 40 15c16 15 44 84 44 192z" />
    <glyph glyph-name="threequarters" unicode="&#xbe;" horiz-adv-x="852" 
d="M800 104h-1c0 -8 0 -16 -11 -16h-11h-50v-27c0 -17 2 -40 15 -40h29c8 0 13 -4 13 -11c0 -6 -5 -10 -13 -10h-147c-7 0 -13 4 -13 10c0 7 6 11 13 11h28c15 0 17 21 17 35v32h-189c-9 0 -16 2 -16 9c0 6 6 13 9 17l184 268c7 10 10 14 25 14h34c7 0 11 -5 11 -13v-274h21
c7 0 14 10 22 19c3 5 15 22 21 22s9 -6 9 -9v-37zM321 609c0 -49 -62 -90 -130 -90c-11 0 -20 3 -20 11c0 7 6 9 14 9c18 1 37 -1 54 11c20 14 25 40 25 60c0 21 -3 47 -25 62c-14 10 -34 14 -56 14c-60 0 -102 -29 -102 -64c0 -8 0 -13 6 -16c0 2 -1 3 -1 4
c0 14 12 24 28 24c18 0 32 -12 32 -28c0 -19 -18 -32 -39 -32c-27 0 -49 20 -49 48c0 48 55 83 124 83c77 0 138 -37 138 -96h1zM646 705l-387 -720h-41l386 720h42zM336 415c0 -63 -69 -115 -151 -115c-76 0 -139 45 -139 100c0 28 18 48 47 48c21 0 37 -12 37 -30
c0 -16 -15 -29 -31 -29c-11 0 -18 3 -28 12c-1 -4 -2 -6 -2 -8c0 -13 10 -30 24 -41c22 -18 55 -29 85 -29c17 0 39 2 52 9c29 17 46 53 46 86c0 63 -46 88 -46 98c0 4 5 5 8 5c10 0 26 -7 42 -17c37 -22 56 -52 56 -89zM669 109v247l-171 -247h171z" />
    <glyph glyph-name="registered" unicode="&#xae;" horiz-adv-x="824" 
d="M774 335c0 -201 -161 -355 -362 -355s-363 154 -363 355c0 212 161 371 363 371c201 0 362 -170 362 -371zM736 335c0 170 -153 338 -324 338c-174 0 -324 -154 -324 -338c0 -173 164 -322 324 -322c171 0 324 152 324 322zM589 169c0 -12 -31 -20 -43 -20
c-17 0 -29 4 -42 16c-12 10 -18 22 -23 40c-5 17 -8 35 -16 70c-4 20 -12 32 -18 40c-3 4 -6 6 -8 9c-3 2 -5 5 -5 7c0 5 5 6 10 6c54 0 68 -57 77 -97c4 -15 7 -28 11 -37c10 -21 21 -33 30 -33c7 0 10 8 18 8c2 0 9 -2 9 -9zM568 440c0 -63 -46 -97 -137 -97h-89v-98
c0 -37 1 -51 12 -65h26c9 0 14 -3 14 -10s-5 -11 -14 -11h-123c-9 0 -14 4 -14 11s5 10 14 10h26c12 14 12 28 12 65v205c0 38 0 52 -12 66h-26c-9 0 -14 3 -14 10s5 10 14 10h174c91 0 137 -34 137 -96zM518 440c0 31 -8 50 -34 67c-14 9 -37 9 -69 9h-73v-152h73
c32 0 58 1 71 10s32 26 32 66z" />
    <glyph glyph-name="minus" unicode="&#x2212;" 
d="M483 205h-446v52h446v-52z" />
    <glyph glyph-name="eth" unicode="&#xf0;" horiz-adv-x="444" 
d="M396 231c0 -143 -73 -246 -175 -246c-92 0 -173 87 -173 230s81 230 173 230c30 0 47 -7 66 -18c-11 37 -32 87 -54 116c-12 -7 -54 -32 -66 -32c-7 0 -12 6 -12 13c0 12 59 38 65 42c-23 33 -41 52 -70 80c-5 5 -13 10 -13 18c0 7 7 12 14 12c20 0 85 -78 99 -94
c13 7 52 31 65 31c6 0 12 -4 12 -11c0 -15 -46 -33 -59 -40c74 -96 128 -195 128 -331zM318 215c0 100 -26 161 -47 185c-15 17 -37 21 -50 21s-36 -4 -50 -21c-21 -24 -47 -85 -47 -185s26 -161 47 -185c14 -17 37 -21 50 -21s35 4 50 21c21 24 47 85 47 185z" />
    <glyph glyph-name="multiply" unicode="&#xd7;" 
d="M453 72l-34 -34l-159 159l-159 -159l-34 34l159 159l-159 159l34 34l159 -159l159 159l34 -34l-159 -159z" />
    <glyph glyph-name="copyright" unicode="&#xa9;" horiz-adv-x="824" 
d="M774 335c0 -201 -161 -355 -362 -355s-363 154 -363 355c0 212 161 371 363 371c201 0 362 -170 362 -371zM736 335c0 170 -153 338 -324 338c-174 0 -324 -154 -324 -338c0 -173 164 -322 324 -322c171 0 324 152 324 322zM546 259c0 -44 -44 -108 -124 -108
c-95 0 -161 91 -161 199c0 109 62 200 161 200c28 0 48 -6 64 -11c9 -4 26 -11 35 -11c4 0 11 -1 11 -9v-54c0 -16 -3 -20 -8 -20c-3 0 -6 3 -9 9c-2 5 -5 11 -8 18c-7 14 -15 30 -26 40c-9 8 -30 17 -59 17c-19 0 -38 -7 -50 -17c-19 -16 -59 -58 -59 -162
c0 -102 40 -144 59 -161c12 -11 31 -17 50 -17c41 0 69 22 88 46c5 7 15 31 15 41c0 13 0 29 11 29c9 0 10 -6 10 -29z" />
    <glyph glyph-name="Aacute" unicode="&#xc1;" horiz-adv-x="685" 
d="M441 850l-93 -100h-33l65 100h61zM671 14c0 -8 -5 -14 -21 -14h-197c-16 0 -21 6 -21 14s5 14 21 14h45c6 3 9 14 9 25c0 6 -4 25 -11 43l-46 125h-248l-29 -78c-11 -29 -14 -55 -14 -61c0 -23 13 -46 19 -54h53c16 0 21 -6 21 -14s-5 -14 -21 -14h-197
c-16 0 -21 6 -21 14s5 14 21 14h44c25 23 42 53 68 123l185 493c12 31 14 41 26 41s16 -21 32 -66l188 -518c15 -41 24 -58 40 -73h33c16 0 21 -6 21 -14zM439 249l-112 301l-115 -301h227z" />
    <glyph glyph-name="Acircumflex" unicode="&#xc2;" horiz-adv-x="685" 
d="M454 750h-33l-67 67l-67 -67h-33l67 100h66zM671 14c0 -8 -5 -14 -21 -14h-197c-16 0 -21 6 -21 14s5 14 21 14h45c6 3 9 14 9 25c0 6 -4 25 -11 43l-46 125h-248l-29 -78c-11 -29 -14 -55 -14 -61c0 -23 13 -46 19 -54h53c16 0 21 -6 21 -14s-5 -14 -21 -14h-197
c-16 0 -21 6 -21 14s5 14 21 14h44c25 23 42 53 68 123l185 493c12 31 14 41 26 41s16 -21 32 -66l188 -518c15 -41 24 -58 40 -73h33c16 0 21 -6 21 -14zM439 249l-112 301l-115 -301h227z" />
    <glyph glyph-name="Adieresis" unicode="&#xc4;" horiz-adv-x="685" 
d="M466 801c0 -24 -19 -43 -43 -43s-43 19 -43 43s19 43 43 43s43 -19 43 -43zM330 801c0 -24 -19 -43 -43 -43s-43 19 -43 43s19 43 43 43s43 -19 43 -43zM671 14c0 -8 -5 -14 -21 -14h-197c-16 0 -21 6 -21 14s5 14 21 14h45c6 3 9 14 9 25c0 6 -4 25 -11 43l-46 125h-248
l-29 -78c-11 -29 -14 -55 -14 -61c0 -23 13 -46 19 -54h53c16 0 21 -6 21 -14s-5 -14 -21 -14h-197c-16 0 -21 6 -21 14s5 14 21 14h44c25 23 42 53 68 123l185 493c12 31 14 41 26 41s16 -21 32 -66l188 -518c15 -41 24 -58 40 -73h33c16 0 21 -6 21 -14zM439 249l-112 301
l-115 -301h227z" />
    <glyph glyph-name="Agrave" unicode="&#xc0;" horiz-adv-x="685" 
d="M401 750h-33l-93 100h61zM671 14c0 -8 -5 -14 -21 -14h-197c-16 0 -21 6 -21 14s5 14 21 14h45c6 3 9 14 9 25c0 6 -4 25 -11 43l-46 125h-248l-29 -78c-11 -29 -14 -55 -14 -61c0 -23 13 -46 19 -54h53c16 0 21 -6 21 -14s-5 -14 -21 -14h-197c-16 0 -21 6 -21 14
s5 14 21 14h44c25 23 42 53 68 123l185 493c12 31 14 41 26 41s16 -21 32 -66l188 -518c15 -41 24 -58 40 -73h33c16 0 21 -6 21 -14zM439 249l-112 301l-115 -301h227z" />
    <glyph glyph-name="Aring" unicode="&#xc5;" horiz-adv-x="685" 
d="M436 826c0 -42 -35 -76 -76 -76s-76 34 -76 76s35 76 76 76s76 -34 76 -76zM671 14c0 -8 -5 -14 -21 -14h-197c-16 0 -21 6 -21 14s5 14 21 14h45c6 3 9 14 9 25c0 6 -4 25 -11 43l-46 125h-248l-29 -78c-11 -29 -14 -55 -14 -61c0 -23 13 -46 19 -54h53
c16 0 21 -6 21 -14s-5 -14 -21 -14h-197c-16 0 -21 6 -21 14s5 14 21 14h44c25 23 42 53 68 123l185 493c12 31 14 41 26 41s16 -21 32 -66l188 -518c15 -41 24 -58 40 -73h33c16 0 21 -6 21 -14zM403 826c0 25 -18 43 -43 43s-43 -18 -43 -43s18 -43 43 -43s43 18 43 43z
M439 249l-112 301l-115 -301h227z" />
    <glyph glyph-name="Atilde" unicode="&#xc3;" horiz-adv-x="685" 
d="M443 826c-3 -20 -11 -55 -55 -55c-29 0 -51 19 -75 19c-13 0 -19 -9 -23 -18h-33c3 20 11 55 55 55c29 0 51 -19 75 -19c13 0 19 9 23 18h33zM671 14c0 -8 -5 -14 -21 -14h-197c-16 0 -21 6 -21 14s5 14 21 14h45c6 3 9 14 9 25c0 6 -4 25 -11 43l-46 125h-248l-29 -78
c-11 -29 -14 -55 -14 -61c0 -23 13 -46 19 -54h53c16 0 21 -6 21 -14s-5 -14 -21 -14h-197c-16 0 -21 6 -21 14s5 14 21 14h44c25 23 42 53 68 123l185 493c12 31 14 41 26 41s16 -21 32 -66l188 -518c15 -41 24 -58 40 -73h33c16 0 21 -6 21 -14zM439 249l-112 301
l-115 -301h227z" />
    <glyph glyph-name="Ccedilla" unicode="&#xc7;" horiz-adv-x="611" 
d="M567 198c0 -102 -79 -218 -228 -218h-6l-7 -16c41 -3 60 -19 60 -53c0 -43 -36 -71 -92 -71c-26 0 -38 3 -65 14l11 28c23 -9 33 -12 52 -12c34 0 54 15 54 41c0 19 -12 24 -50 24h-15l20 48c-156 21 -255 175 -255 359c0 199 114 363 293 363c100 0 150 -41 184 -41
c5 0 15 0 15 -10v-101c0 -24 -2 -31 -10 -31c-16 0 -32 84 -77 122c-18 15 -58 33 -112 33c-37 0 -72 -14 -96 -33c-36 -30 -111 -110 -111 -302c0 -191 75 -268 111 -301c24 -22 59 -33 96 -33c87 0 144 49 175 101c18 31 21 68 21 89c0 45 -9 68 -9 81c0 5 2 8 9 8
c15 0 32 -44 32 -89z" />
    <glyph glyph-name="Eacute" unicode="&#xc9;" horiz-adv-x="611" 
d="M399 850l-93 -100h-33l65 100h61zM571 16c0 -7 -5 -16 -14 -16h-497c-15 0 -21 6 -21 14c0 9 6 14 21 14h51c24 27 24 55 24 124v381c0 69 0 97 -24 124h-51c-15 0 -21 5 -21 14c0 8 6 14 21 14h484c9 0 14 -9 14 -16v-134c0 -16 -5 -18 -12 -18c-4 0 -12 2 -12 18v21
c0 13 -32 68 -89 101h-232v-291h105c28 11 41 26 54 54v25c0 14 5 18 12 18s12 -4 12 -18v-186c0 -14 -5 -18 -12 -18s-12 4 -12 18v25c-13 28 -26 43 -54 54h-105v-310h247c55 33 87 92 87 105v37c0 14 8 18 12 18c7 0 12 -2 12 -18v-154z" />
    <glyph glyph-name="Ecircumflex" unicode="&#xca;" horiz-adv-x="611" 
d="M436 750h-33l-67 67l-67 -67h-33l67 100h66zM571 16c0 -7 -5 -16 -14 -16h-497c-15 0 -21 6 -21 14c0 9 6 14 21 14h51c24 27 24 55 24 124v381c0 69 0 97 -24 124h-51c-15 0 -21 5 -21 14c0 8 6 14 21 14h484c9 0 14 -9 14 -16v-134c0 -16 -5 -18 -12 -18
c-4 0 -12 2 -12 18v21c0 13 -32 68 -89 101h-232v-291h105c28 11 41 26 54 54v25c0 14 5 18 12 18s12 -4 12 -18v-186c0 -14 -5 -18 -12 -18s-12 4 -12 18v25c-13 28 -26 43 -54 54h-105v-310h247c55 33 87 92 87 105v37c0 14 8 18 12 18c7 0 12 -2 12 -18v-154z" />
    <glyph glyph-name="Edieresis" unicode="&#xcb;" horiz-adv-x="611" 
d="M447 801c0 -24 -19 -43 -43 -43s-43 19 -43 43s19 43 43 43s43 -19 43 -43zM311 801c0 -24 -19 -43 -43 -43s-43 19 -43 43s19 43 43 43s43 -19 43 -43zM571 16c0 -7 -5 -16 -14 -16h-497c-15 0 -21 6 -21 14c0 9 6 14 21 14h51c24 27 24 55 24 124v381
c0 69 0 97 -24 124h-51c-15 0 -21 5 -21 14c0 8 6 14 21 14h484c9 0 14 -9 14 -16v-134c0 -16 -5 -18 -12 -18c-4 0 -12 2 -12 18v21c0 13 -32 68 -89 101h-232v-291h105c28 11 41 26 54 54v25c0 14 5 18 12 18s12 -4 12 -18v-186c0 -14 -5 -18 -12 -18s-12 4 -12 18v25
c-13 28 -26 43 -54 54h-105v-310h247c55 33 87 92 87 105v37c0 14 8 18 12 18c7 0 12 -2 12 -18v-154z" />
    <glyph glyph-name="Egrave" unicode="&#xc8;" horiz-adv-x="611" 
d="M371 750h-33l-93 100h61zM571 16c0 -7 -5 -16 -14 -16h-497c-15 0 -21 6 -21 14c0 9 6 14 21 14h51c24 27 24 55 24 124v381c0 69 0 97 -24 124h-51c-15 0 -21 5 -21 14c0 8 6 14 21 14h484c9 0 14 -9 14 -16v-134c0 -16 -5 -18 -12 -18c-4 0 -12 2 -12 18v21
c0 13 -32 68 -89 101h-232v-291h105c28 11 41 26 54 54v25c0 14 5 18 12 18s12 -4 12 -18v-186c0 -14 -5 -18 -12 -18s-12 4 -12 18v25c-13 28 -26 43 -54 54h-105v-310h247c55 33 87 92 87 105v37c0 14 8 18 12 18c7 0 12 -2 12 -18v-154z" />
    <glyph glyph-name="Iacute" unicode="&#xcd;" horiz-adv-x="333" 
d="M243 850l-93 -100h-33l65 100h61zM301 14c0 -9 -6 -14 -21 -14h-228c-15 0 -21 6 -21 14c0 9 6 14 21 14h51c24 27 24 55 24 124v381c0 69 0 97 -24 124h-51c-15 0 -21 5 -21 14c0 8 6 14 21 14h228c15 0 21 -5 21 -14s-6 -14 -21 -14h-51c-24 -27 -24 -55 -24 -124v-381
c0 -69 0 -97 24 -124h51c15 0 21 -5 21 -14z" />
    <glyph glyph-name="Icircumflex" unicode="&#xce;" horiz-adv-x="333" 
d="M274 750h-33l-67 67l-67 -67h-33l67 100h66zM301 14c0 -9 -6 -14 -21 -14h-228c-15 0 -21 6 -21 14c0 9 6 14 21 14h51c24 27 24 55 24 124v381c0 69 0 97 -24 124h-51c-15 0 -21 5 -21 14c0 8 6 14 21 14h228c15 0 21 -5 21 -14s-6 -14 -21 -14h-51
c-24 -27 -24 -55 -24 -124v-381c0 -69 0 -97 24 -124h51c15 0 21 -5 21 -14z" />
    <glyph glyph-name="Idieresis" unicode="&#xcf;" horiz-adv-x="333" 
d="M278 801c0 -24 -19 -43 -43 -43s-43 19 -43 43s19 43 43 43s43 -19 43 -43zM142 801c0 -24 -19 -43 -43 -43s-43 19 -43 43s19 43 43 43s43 -19 43 -43zM301 14c0 -9 -6 -14 -21 -14h-228c-15 0 -21 6 -21 14c0 9 6 14 21 14h51c24 27 24 55 24 124v381
c0 69 0 97 -24 124h-51c-15 0 -21 5 -21 14c0 8 6 14 21 14h228c15 0 21 -5 21 -14s-6 -14 -21 -14h-51c-24 -27 -24 -55 -24 -124v-381c0 -69 0 -97 24 -124h51c15 0 21 -5 21 -14z" />
    <glyph glyph-name="Igrave" unicode="&#xcc;" horiz-adv-x="333" 
d="M227 750h-33l-93 100h61zM301 14c0 -9 -6 -14 -21 -14h-228c-15 0 -21 6 -21 14c0 9 6 14 21 14h51c24 27 24 55 24 124v381c0 69 0 97 -24 124h-51c-15 0 -21 5 -21 14c0 8 6 14 21 14h228c15 0 21 -5 21 -14s-6 -14 -21 -14h-51c-24 -27 -24 -55 -24 -124v-381
c0 -69 0 -97 24 -124h51c15 0 21 -5 21 -14z" />
    <glyph glyph-name="Ntilde" unicode="&#xd1;" horiz-adv-x="685" 
d="M445 826c-3 -20 -11 -55 -55 -55c-29 0 -51 19 -75 19c-13 0 -19 -9 -23 -18h-33c3 20 11 55 55 55c29 0 51 -19 75 -19c13 0 19 9 23 18h33zM678 671c0 -9 -6 -14 -21 -14h-76c-24 -27 -24 -55 -24 -124v-477c0 -72 -1 -76 -12 -76c-10 0 -27 33 -47 66l-337 564v-458
c0 -69 0 -97 24 -124h76c15 0 21 -5 21 -14s-6 -14 -21 -14h-226c-15 0 -21 6 -21 14c0 9 6 14 21 14h74c24 27 24 55 24 124v381c0 67 0 98 -24 124h-46c-15 0 -21 5 -21 14c0 8 6 14 21 14h147l319 -533v381c0 69 0 97 -24 124h-74c-15 0 -21 5 -21 14c0 8 6 14 21 14h226
c15 0 21 -5 21 -14z" />
    <glyph glyph-name="Oacute" unicode="&#xd3;" horiz-adv-x="630" 
d="M399 850l-93 -100h-33l65 100h61zM578 342c0 -198 -106 -362 -263 -362c-160 0 -263 164 -263 362c0 199 102 363 263 363c157 0 263 -164 263 -363zM492 342c0 191 -55 277 -82 301c-24 21 -58 34 -95 34s-71 -13 -95 -34c-27 -24 -82 -110 -82 -301
c0 -190 55 -276 82 -300c24 -21 58 -34 95 -34s71 13 95 34c27 24 82 110 82 300z" />
    <glyph glyph-name="Ocircumflex" unicode="&#xd4;" horiz-adv-x="630" 
d="M418 750h-33l-67 67l-67 -67h-33l67 100h66zM578 342c0 -198 -106 -362 -263 -362c-160 0 -263 164 -263 362c0 199 102 363 263 363c157 0 263 -164 263 -363zM492 342c0 191 -55 277 -82 301c-24 21 -58 34 -95 34s-71 -13 -95 -34c-27 -24 -82 -110 -82 -301
c0 -190 55 -276 82 -300c24 -21 58 -34 95 -34s71 13 95 34c27 24 82 110 82 300z" />
    <glyph glyph-name="Odieresis" unicode="&#xd6;" horiz-adv-x="630" 
d="M424 801c0 -24 -19 -43 -43 -43s-43 19 -43 43s19 43 43 43s43 -19 43 -43zM288 801c0 -24 -19 -43 -43 -43s-43 19 -43 43s19 43 43 43s43 -19 43 -43zM578 342c0 -198 -106 -362 -263 -362c-160 0 -263 164 -263 362c0 199 102 363 263 363c157 0 263 -164 263 -363z
M492 342c0 191 -55 277 -82 301c-24 21 -58 34 -95 34s-71 -13 -95 -34c-27 -24 -82 -110 -82 -301c0 -190 55 -276 82 -300c24 -21 58 -34 95 -34s71 13 95 34c27 24 82 110 82 300z" />
    <glyph glyph-name="Ograve" unicode="&#xd2;" horiz-adv-x="630" 
d="M363 750h-33l-93 100h61zM578 342c0 -198 -106 -362 -263 -362c-160 0 -263 164 -263 362c0 199 102 363 263 363c157 0 263 -164 263 -363zM492 342c0 191 -55 277 -82 301c-24 21 -58 34 -95 34s-71 -13 -95 -34c-27 -24 -82 -110 -82 -301c0 -190 55 -276 82 -300
c24 -21 58 -34 95 -34s71 13 95 34c27 24 82 110 82 300z" />
    <glyph glyph-name="Otilde" unicode="&#xd5;" horiz-adv-x="630" 
d="M411 826c-3 -20 -11 -55 -55 -55c-29 0 -51 19 -75 19c-13 0 -19 -9 -23 -18h-33c3 20 11 55 55 55c29 0 51 -19 75 -19c13 0 19 9 23 18h33zM578 342c0 -198 -106 -362 -263 -362c-160 0 -263 164 -263 362c0 199 102 363 263 363c157 0 263 -164 263 -363zM492 342
c0 191 -55 277 -82 301c-24 21 -58 34 -95 34s-71 -13 -95 -34c-27 -24 -82 -110 -82 -301c0 -190 55 -276 82 -300c24 -21 58 -34 95 -34s71 13 95 34c27 24 82 110 82 300z" />
    <glyph glyph-name="Scaron" unicode="&#x160;" horiz-adv-x="593" 
d="M404 850l-67 -100h-66l-67 100h33l67 -67l67 67h33zM551 172c0 -123 -109 -192 -234 -192c-101 0 -170 33 -196 33c-30 0 -47 -23 -59 -23c-6 0 -12 4 -12 11v170c0 9 2 17 14 17c11 0 14 -8 14 -17c0 -46 4 -98 59 -123c24 -11 99 -40 180 -40c69 0 108 24 123 37
c18 15 39 50 39 90c0 93 -46 131 -125 156c-43 13 -96 30 -157 49c-88 28 -142 90 -142 184c0 109 89 181 221 181c105 0 163 -35 178 -35c26 0 49 21 58 21c6 0 12 -4 12 -12v-134c0 -15 -3 -20 -13 -20c-4 0 -10 1 -14 12c-10 32 -38 72 -54 86c-17 14 -67 54 -162 54
c-46 0 -82 -17 -104 -33s-50 -52 -50 -95c0 -71 32 -112 91 -130c48 -15 113 -38 191 -62c88 -27 142 -92 142 -185z" />
    <glyph glyph-name="Uacute" unicode="&#xda;" horiz-adv-x="667" 
d="M441 850l-93 -100h-33l65 100h61zM657 671c0 -9 -6 -14 -21 -14h-71c-24 -27 -24 -55 -24 -124v-361c0 -130 -59 -192 -202 -192c-135 0 -215 57 -215 195v358c0 69 0 97 -24 124h-51c-15 0 -21 5 -21 14c0 8 6 14 21 14h208c15 0 21 -5 21 -14s-6 -14 -21 -14h-31
c-24 -27 -24 -55 -24 -124v-358c0 -118 38 -167 137 -167c77 0 174 20 174 154v371c0 69 0 97 -24 124h-56c-15 0 -21 5 -21 14c0 8 6 14 21 14h203c15 0 21 -5 21 -14z" />
    <glyph glyph-name="Ucircumflex" unicode="&#xdb;" horiz-adv-x="667" 
d="M440 750h-33l-67 67l-67 -67h-33l67 100h66zM657 671c0 -9 -6 -14 -21 -14h-71c-24 -27 -24 -55 -24 -124v-361c0 -130 -59 -192 -202 -192c-135 0 -215 57 -215 195v358c0 69 0 97 -24 124h-51c-15 0 -21 5 -21 14c0 8 6 14 21 14h208c15 0 21 -5 21 -14s-6 -14 -21 -14
h-31c-24 -27 -24 -55 -24 -124v-358c0 -118 38 -167 137 -167c77 0 174 20 174 154v371c0 69 0 97 -24 124h-56c-15 0 -21 5 -21 14c0 8 6 14 21 14h203c15 0 21 -5 21 -14z" />
    <glyph glyph-name="Udieresis" unicode="&#xdc;" horiz-adv-x="667" 
d="M457 801c0 -24 -19 -43 -43 -43s-43 19 -43 43s19 43 43 43s43 -19 43 -43zM321 801c0 -24 -19 -43 -43 -43s-43 19 -43 43s19 43 43 43s43 -19 43 -43zM657 671c0 -9 -6 -14 -21 -14h-71c-24 -27 -24 -55 -24 -124v-361c0 -130 -59 -192 -202 -192
c-135 0 -215 57 -215 195v358c0 69 0 97 -24 124h-51c-15 0 -21 5 -21 14c0 8 6 14 21 14h208c15 0 21 -5 21 -14s-6 -14 -21 -14h-31c-24 -27 -24 -55 -24 -124v-358c0 -118 38 -167 137 -167c77 0 174 20 174 154v371c0 69 0 97 -24 124h-56c-15 0 -21 5 -21 14
c0 8 6 14 21 14h203c15 0 21 -5 21 -14z" />
    <glyph glyph-name="Ugrave" unicode="&#xd9;" horiz-adv-x="667" 
d="M371 750h-33l-93 100h61zM657 671c0 -9 -6 -14 -21 -14h-71c-24 -27 -24 -55 -24 -124v-361c0 -130 -59 -192 -202 -192c-135 0 -215 57 -215 195v358c0 69 0 97 -24 124h-51c-15 0 -21 5 -21 14c0 8 6 14 21 14h208c15 0 21 -5 21 -14s-6 -14 -21 -14h-31
c-24 -27 -24 -55 -24 -124v-358c0 -118 38 -167 137 -167c77 0 174 20 174 154v371c0 69 0 97 -24 124h-56c-15 0 -21 5 -21 14c0 8 6 14 21 14h203c15 0 21 -5 21 -14z" />
    <glyph glyph-name="Yacute" unicode="&#xdd;" horiz-adv-x="648" 
d="M421 850l-93 -100h-33l65 100h61zM640 671c0 -8 -6 -14 -21 -14h-44c-48 -32 -68 -67 -113 -141l-118 -195v-169c0 -69 0 -97 24 -124h51c15 0 21 -5 21 -14c0 -8 -6 -14 -21 -14h-228c-15 0 -21 6 -21 14c0 9 6 14 21 14h51c24 27 24 55 24 124v167l-133 249
c-24 45 -43 78 -62 89h-42c-16 0 -21 6 -21 14c0 9 5 14 21 14h221c16 0 21 -5 21 -14c0 -8 -5 -14 -21 -14h-52c-6 -3 -9 -14 -9 -25c0 -10 13 -34 22 -48l121 -232l129 216c13 22 21 37 21 50c0 17 -13 32 -19 39h-53c-16 0 -21 6 -21 14c0 9 5 14 21 14h209
c16 0 21 -5 21 -14z" />
    <glyph glyph-name="Ydieresis" unicode="&#x178;" horiz-adv-x="648" 
d="M441 801c0 -24 -19 -43 -43 -43s-43 19 -43 43s19 43 43 43s43 -19 43 -43zM305 801c0 -24 -19 -43 -43 -43s-43 19 -43 43s19 43 43 43s43 -19 43 -43zM640 671c0 -8 -6 -14 -21 -14h-44c-48 -32 -68 -67 -113 -141l-118 -195v-169c0 -69 0 -97 24 -124h51
c15 0 21 -5 21 -14c0 -8 -6 -14 -21 -14h-228c-15 0 -21 6 -21 14c0 9 6 14 21 14h51c24 27 24 55 24 124v167l-133 249c-24 45 -43 78 -62 89h-42c-16 0 -21 6 -21 14c0 9 5 14 21 14h221c16 0 21 -5 21 -14c0 -8 -5 -14 -21 -14h-52c-6 -3 -9 -14 -9 -25
c0 -10 13 -34 22 -48l121 -232l129 216c13 22 21 37 21 50c0 17 -13 32 -19 39h-53c-16 0 -21 6 -21 14c0 9 5 14 21 14h209c16 0 21 -5 21 -14z" />
    <glyph glyph-name="Zcaron" unicode="&#x17d;" horiz-adv-x="537" 
d="M374 850l-67 -100h-66l-67 100h33l67 -67l67 67h33zM500 16c0 -7 -5 -16 -14 -16h-417c-26 0 -32 5 -32 14c0 7 3 12 11 26l350 617h-210c-26 -10 -46 -26 -66 -55c-26 -38 -28 -69 -43 -69c-8 0 -14 2 -14 19v117c0 7 5 16 14 16h389c18 0 26 0 26 -11
c0 -12 -9 -24 -15 -35l-344 -611h262c12 5 29 24 48 50c33 44 30 67 44 67c6 0 11 -2 11 -19v-110z" />
    <glyph glyph-name="aacute" unicode="&#xe1;" horiz-adv-x="481" 
d="M299 590l-93 -100h-33l65 100h61zM463 53c0 -21 -37 -68 -86 -68c-56 0 -72 43 -72 80c-22 -26 -70 -80 -141 -80c-83 0 -126 40 -126 110c0 155 206 131 267 218c0 54 -26 89 -44 97c-21 9 -41 11 -54 11c-11 0 -38 -2 -54 -11c-15 -8 -30 -29 -30 -43
c14 0 38 -12 38 -40c0 -26 -22 -40 -48 -40c-31 0 -48 28 -48 54c0 56 62 104 142 104c131 0 170 -74 170 -191v-188c0 -35 16 -42 25 -42c25 0 37 43 47 43c9 0 14 -6 14 -14zM305 102v174c-83 -72 -191 -47 -191 -158c0 -60 35 -105 69 -105c43 0 88 49 122 89z" />
    <glyph glyph-name="acircumflex" unicode="&#xe2;" horiz-adv-x="481" 
d="M309 490h-33l-67 67l-67 -67h-33l67 100h66zM463 53c0 -21 -37 -68 -86 -68c-56 0 -72 43 -72 80c-22 -26 -70 -80 -141 -80c-83 0 -126 40 -126 110c0 155 206 131 267 218c0 54 -26 89 -44 97c-21 9 -41 11 -54 11c-11 0 -38 -2 -54 -11c-15 -8 -30 -29 -30 -43
c14 0 38 -12 38 -40c0 -26 -22 -40 -48 -40c-31 0 -48 28 -48 54c0 56 62 104 142 104c131 0 170 -74 170 -191v-188c0 -35 16 -42 25 -42c25 0 37 43 47 43c9 0 14 -6 14 -14zM305 102v174c-83 -72 -191 -47 -191 -158c0 -60 35 -105 69 -105c43 0 88 49 122 89z" />
    <glyph glyph-name="adieresis" unicode="&#xe4;" horiz-adv-x="481" 
d="M324 541c0 -24 -19 -43 -43 -43s-43 19 -43 43s19 43 43 43s43 -19 43 -43zM188 541c0 -24 -19 -43 -43 -43s-43 19 -43 43s19 43 43 43s43 -19 43 -43zM463 53c0 -21 -37 -68 -86 -68c-56 0 -72 43 -72 80c-22 -26 -70 -80 -141 -80c-83 0 -126 40 -126 110
c0 155 206 131 267 218c0 54 -26 89 -44 97c-21 9 -41 11 -54 11c-11 0 -38 -2 -54 -11c-15 -8 -30 -29 -30 -43c14 0 38 -12 38 -40c0 -26 -22 -40 -48 -40c-31 0 -48 28 -48 54c0 56 62 104 142 104c131 0 170 -74 170 -191v-188c0 -35 16 -42 25 -42c25 0 37 43 47 43
c9 0 14 -6 14 -14zM305 102v174c-83 -72 -191 -47 -191 -158c0 -60 35 -105 69 -105c43 0 88 49 122 89z" />
    <glyph glyph-name="agrave" unicode="&#xe0;" horiz-adv-x="481" 
d="M263 490h-33l-93 100h61zM463 53c0 -21 -37 -68 -86 -68c-56 0 -72 43 -72 80c-22 -26 -70 -80 -141 -80c-83 0 -126 40 -126 110c0 155 206 131 267 218c0 54 -26 89 -44 97c-21 9 -41 11 -54 11c-11 0 -38 -2 -54 -11c-15 -8 -30 -29 -30 -43c14 0 38 -12 38 -40
c0 -26 -22 -40 -48 -40c-31 0 -48 28 -48 54c0 56 62 104 142 104c131 0 170 -74 170 -191v-188c0 -35 16 -42 25 -42c25 0 37 43 47 43c9 0 14 -6 14 -14zM305 102v174c-83 -72 -191 -47 -191 -158c0 -60 35 -105 69 -105c43 0 88 49 122 89z" />
    <glyph glyph-name="aring" unicode="&#xe5;" horiz-adv-x="481" 
d="M296 566c0 -42 -35 -76 -76 -76s-76 34 -76 76s35 76 76 76s76 -34 76 -76zM463 53c0 -21 -37 -68 -86 -68c-56 0 -72 43 -72 80c-22 -26 -70 -80 -141 -80c-83 0 -126 40 -126 110c0 155 206 131 267 218c0 54 -26 89 -44 97c-21 9 -41 11 -54 11c-11 0 -38 -2 -54 -11
c-15 -8 -30 -29 -30 -43c14 0 38 -12 38 -40c0 -26 -22 -40 -48 -40c-31 0 -48 28 -48 54c0 56 62 104 142 104c131 0 170 -74 170 -191v-188c0 -35 16 -42 25 -42c25 0 37 43 47 43c9 0 14 -6 14 -14zM263 566c0 25 -18 43 -43 43s-43 -18 -43 -43s18 -43 43 -43
s43 18 43 43zM305 102v174c-83 -72 -191 -47 -191 -158c0 -60 35 -105 69 -105c43 0 88 49 122 89z" />
    <glyph glyph-name="atilde" unicode="&#xe3;" horiz-adv-x="481" 
d="M302 566c-3 -20 -11 -55 -55 -55c-29 0 -51 19 -75 19c-13 0 -19 -9 -23 -18h-33c3 20 11 55 55 55c29 0 51 -19 75 -19c13 0 19 9 23 18h33zM463 53c0 -21 -37 -68 -86 -68c-56 0 -72 43 -72 80c-22 -26 -70 -80 -141 -80c-83 0 -126 40 -126 110c0 155 206 131 267 218
c0 54 -26 89 -44 97c-21 9 -41 11 -54 11c-11 0 -38 -2 -54 -11c-15 -8 -30 -29 -30 -43c14 0 38 -12 38 -40c0 -26 -22 -40 -48 -40c-31 0 -48 28 -48 54c0 56 62 104 142 104c131 0 170 -74 170 -191v-188c0 -35 16 -42 25 -42c25 0 37 43 47 43c9 0 14 -6 14 -14z
M305 102v174c-83 -72 -191 -47 -191 -158c0 -60 35 -105 69 -105c43 0 88 49 122 89z" />
    <glyph glyph-name="ccedilla" unicode="&#xe7;" horiz-adv-x="444" 
d="M391 131c0 -72 -48 -139 -149 -145l-9 -22c41 -3 60 -19 60 -53c0 -43 -36 -71 -92 -71c-26 0 -38 3 -65 14l11 28c23 -9 33 -12 52 -12c34 0 54 15 54 41c0 19 -12 24 -50 24h-15l22 51c-88 9 -165 94 -165 229c0 143 86 230 180 230c61 0 78 -20 95 -20
c18 0 26 15 40 15c4 0 8 -3 8 -6v-109c0 -23 -2 -31 -9 -31c-4 0 -8 7 -13 19c-12 27 -38 65 -57 87c-14 16 -38 21 -64 21c-16 0 -39 -5 -53 -21c-19 -21 -51 -85 -51 -185c0 -97 32 -161 51 -182c14 -16 37 -24 53 -24c34 0 55 6 75 21c31 23 55 64 55 105
c0 43 -15 69 -15 76c0 6 4 8 7 8c16 0 44 -48 44 -88z" />
    <glyph glyph-name="eacute" unicode="&#xe9;" horiz-adv-x="444" 
d="M299 590l-93 -100h-33l65 100h61zM393 232c0 -10 -9 -13 -21 -13h-255c0 -116 33 -171 51 -189c14 -14 38 -21 52 -21c73 0 117 43 117 109c0 11 4 14 11 14h22c8 0 10 -7 10 -14c0 -57 -55 -133 -160 -133s-179 87 -179 230s81 230 179 230c141 0 173 -186 173 -213z
M310 247c0 74 -17 137 -38 156c-16 14 -33 18 -52 18c-14 0 -36 -4 -52 -18c-21 -19 -51 -72 -51 -156h193z" />
    <glyph glyph-name="ecircumflex" unicode="&#xea;" horiz-adv-x="444" 
d="M308 490h-33l-67 67l-67 -67h-33l67 100h66zM393 232c0 -10 -9 -13 -21 -13h-255c0 -116 33 -171 51 -189c14 -14 38 -21 52 -21c73 0 117 43 117 109c0 11 4 14 11 14h22c8 0 10 -7 10 -14c0 -57 -55 -133 -160 -133s-179 87 -179 230s81 230 179 230
c141 0 173 -186 173 -213zM310 247c0 74 -17 137 -38 156c-16 14 -33 18 -52 18c-14 0 -36 -4 -52 -18c-21 -19 -51 -72 -51 -156h193z" />
    <glyph glyph-name="edieresis" unicode="&#xeb;" horiz-adv-x="444" 
d="M324 541c0 -24 -19 -43 -43 -43s-43 19 -43 43s19 43 43 43s43 -19 43 -43zM188 541c0 -24 -19 -43 -43 -43s-43 19 -43 43s19 43 43 43s43 -19 43 -43zM393 232c0 -10 -9 -13 -21 -13h-255c0 -116 33 -171 51 -189c14 -14 38 -21 52 -21c73 0 117 43 117 109
c0 11 4 14 11 14h22c8 0 10 -7 10 -14c0 -57 -55 -133 -160 -133s-179 87 -179 230s81 230 179 230c141 0 173 -186 173 -213zM310 247c0 74 -17 137 -38 156c-16 14 -33 18 -52 18c-14 0 -36 -4 -52 -18c-21 -19 -51 -72 -51 -156h193z" />
    <glyph glyph-name="egrave" unicode="&#xe8;" horiz-adv-x="444" 
d="M275 490h-33l-93 100h61zM393 232c0 -10 -9 -13 -21 -13h-255c0 -116 33 -171 51 -189c14 -14 38 -21 52 -21c73 0 117 43 117 109c0 11 4 14 11 14h22c8 0 10 -7 10 -14c0 -57 -55 -133 -160 -133s-179 87 -179 230s81 230 179 230c141 0 173 -186 173 -213zM310 247
c0 74 -17 137 -38 156c-16 14 -33 18 -52 18c-14 0 -36 -4 -52 -18c-21 -19 -51 -72 -51 -156h193z" />
    <glyph glyph-name="iacute" unicode="&#xed;" horiz-adv-x="296" 
d="M215 590l-93 -100h-33l65 100h61zM283 13c0 -9 -8 -13 -20 -13h-219c-12 0 -18 4 -18 13c0 11 6 15 18 15h35c39 10 40 45 40 104v166c0 59 -1 94 -40 104h-29c-14 0 -24 2 -24 14c0 11 7 14 24 14h120c21 0 21 -7 21 -25v-273c0 -59 1 -94 40 -104h32c12 0 20 -4 20 -15
z" />
    <glyph glyph-name="icircumflex" unicode="&#xee;" horiz-adv-x="296" 
d="M238 490h-33l-67 67l-67 -67h-33l67 100h66zM283 13c0 -9 -8 -13 -20 -13h-219c-12 0 -18 4 -18 13c0 11 6 15 18 15h35c39 10 40 45 40 104v166c0 59 -1 94 -40 104h-29c-14 0 -24 2 -24 14c0 11 7 14 24 14h120c21 0 21 -7 21 -25v-273c0 -59 1 -94 40 -104h32
c12 0 20 -4 20 -15z" />
    <glyph glyph-name="idieresis" unicode="&#xef;" horiz-adv-x="296" 
d="M249 541c0 -24 -19 -43 -43 -43s-43 19 -43 43s19 43 43 43s43 -19 43 -43zM113 541c0 -24 -19 -43 -43 -43s-43 19 -43 43s19 43 43 43s43 -19 43 -43zM283 13c0 -9 -8 -13 -20 -13h-219c-12 0 -18 4 -18 13c0 11 6 15 18 15h35c39 10 40 45 40 104v166
c0 59 -1 94 -40 104h-29c-14 0 -24 2 -24 14c0 11 7 14 24 14h120c21 0 21 -7 21 -25v-273c0 -59 1 -94 40 -104h32c12 0 20 -4 20 -15z" />
    <glyph glyph-name="igrave" unicode="&#xec;" horiz-adv-x="296" 
d="M195 490h-33l-93 100h61zM283 13c0 -9 -8 -13 -20 -13h-219c-12 0 -18 4 -18 13c0 11 6 15 18 15h35c39 10 40 45 40 104v166c0 59 -1 94 -40 104h-29c-14 0 -24 2 -24 14c0 11 7 14 24 14h120c21 0 21 -7 21 -25v-273c0 -59 1 -94 40 -104h32c12 0 20 -4 20 -15z" />
    <glyph glyph-name="ntilde" unicode="&#xf1;" horiz-adv-x="537" 
d="M353 566c-3 -20 -11 -55 -55 -55c-29 0 -51 19 -75 19c-13 0 -19 -9 -23 -18h-33c3 20 11 55 55 55c29 0 51 -19 75 -19c13 0 19 9 23 18h33zM518 14c0 -10 -5 -14 -20 -14h-127c-8 0 -17 0 -17 17v295c0 80 -22 105 -53 105c-53 0 -84 -35 -118 -83v-191
c0 -72 1 -100 27 -115h43c15 0 21 -4 21 -14s-8 -14 -21 -14h-214c-13 0 -21 4 -21 14s6 14 21 14h45c26 15 27 43 27 115v165c0 36 0 73 -23 94h-50c-15 0 -20 4 -20 14s5 14 20 14h128c10 0 17 -4 17 -14v-41c32 43 65 70 123 70c85 0 120 -60 120 -140v-183
c0 -36 0 -73 22 -94h50c15 0 20 -4 20 -14z" />
    <glyph glyph-name="oacute" unicode="&#xf3;" horiz-adv-x="444" 
d="M299 590l-93 -100h-33l65 100h61zM395 215c0 -143 -81 -230 -173 -230s-173 87 -173 230s81 230 173 230s173 -87 173 -230zM319 215c0 100 -26 161 -47 185c-15 17 -37 21 -50 21s-36 -4 -50 -21c-21 -24 -47 -85 -47 -185s26 -161 47 -185c14 -17 37 -21 50 -21
s35 4 50 21c21 24 47 85 47 185z" />
    <glyph glyph-name="ocircumflex" unicode="&#xf4;" horiz-adv-x="444" 
d="M312 490h-33l-67 67l-67 -67h-33l67 100h66zM395 215c0 -143 -81 -230 -173 -230s-173 87 -173 230s81 230 173 230s173 -87 173 -230zM319 215c0 100 -26 161 -47 185c-15 17 -37 21 -50 21s-36 -4 -50 -21c-21 -24 -47 -85 -47 -185s26 -161 47 -185
c14 -17 37 -21 50 -21s35 4 50 21c21 24 47 85 47 185z" />
    <glyph glyph-name="odieresis" unicode="&#xf6;" horiz-adv-x="444" 
d="M329 541c0 -24 -19 -43 -43 -43s-43 19 -43 43s19 43 43 43s43 -19 43 -43zM193 541c0 -24 -19 -43 -43 -43s-43 19 -43 43s19 43 43 43s43 -19 43 -43zM395 215c0 -143 -81 -230 -173 -230s-173 87 -173 230s81 230 173 230s173 -87 173 -230zM319 215
c0 100 -26 161 -47 185c-15 17 -37 21 -50 21s-36 -4 -50 -21c-21 -24 -47 -85 -47 -185s26 -161 47 -185c14 -17 37 -21 50 -21s35 4 50 21c21 24 47 85 47 185z" />
    <glyph glyph-name="ograve" unicode="&#xf2;" horiz-adv-x="444" 
d="M275 490h-33l-93 100h61zM395 215c0 -143 -81 -230 -173 -230s-173 87 -173 230s81 230 173 230s173 -87 173 -230zM319 215c0 100 -26 161 -47 185c-15 17 -37 21 -50 21s-36 -4 -50 -21c-21 -24 -47 -85 -47 -185s26 -161 47 -185c14 -17 37 -21 50 -21s35 4 50 21
c21 24 47 85 47 185z" />
    <glyph glyph-name="otilde" unicode="&#xf5;" horiz-adv-x="444" 
d="M305 566c-3 -20 -11 -55 -55 -55c-29 0 -51 19 -75 19c-13 0 -19 -9 -23 -18h-33c3 20 11 55 55 55c29 0 51 -19 75 -19c13 0 19 9 23 18h33zM395 215c0 -143 -81 -230 -173 -230s-173 87 -173 230s81 230 173 230s173 -87 173 -230zM319 215c0 100 -26 161 -47 185
c-15 17 -37 21 -50 21s-36 -4 -50 -21c-21 -24 -47 -85 -47 -185s26 -161 47 -185c14 -17 37 -21 50 -21s35 4 50 21c21 24 47 85 47 185z" />
    <glyph glyph-name="scaron" unicode="&#x161;" horiz-adv-x="370" 
d="M277 590l-67 -100h-66l-67 100h33l67 -67l67 67h33zM336 126c0 -88 -62 -141 -149 -141c-51 0 -86 21 -99 21c-17 0 -35 -21 -42 -21c-4 0 -7 5 -7 10v111c0 11 3 16 8 16s10 -8 15 -16c13 -24 27 -48 42 -63c15 -19 54 -34 83 -34c19 0 41 10 55 24c11 9 29 32 29 67
c0 50 -34 75 -73 90c-24 14 -52 19 -69 29c-59 22 -87 53 -87 111c0 73 46 115 131 115c35 0 67 -17 77 -17c19 0 38 17 49 17c5 0 12 -4 12 -10v-85c0 -7 -5 -14 -11 -14s-9 5 -13 13c-8 15 -19 34 -33 44c-16 14 -45 28 -81 28c-19 0 -42 -7 -54 -21
c-11 -9 -23 -20 -23 -48c0 -33 19 -52 49 -60c24 -10 50 -21 75 -30c76 -20 116 -74 116 -136z" />
    <glyph glyph-name="uacute" unicode="&#xfa;" 
d="M315 590l-93 -100h-33l65 100h61zM479 14c0 -10 -5 -14 -20 -14h-128c-17 0 -17 9 -17 27c-26 -26 -53 -42 -101 -42c-85 0 -120 60 -120 140v183c0 36 0 73 -22 94h-50c-15 0 -20 4 -20 14s5 14 20 14h127c8 0 17 0 17 -17v-299c0 -80 22 -105 53 -105c43 0 68 23 96 55
v223c0 72 -1 100 -27 115h-43c-15 0 -21 4 -21 14s8 14 21 14h214c13 0 21 -4 21 -14s-6 -14 -21 -14h-45c-26 -15 -27 -43 -27 -115v-159c0 -38 0 -78 23 -100h50c15 0 20 -4 20 -14z" />
    <glyph glyph-name="ucircumflex" unicode="&#xfb;" 
d="M329 490h-33l-67 67l-67 -67h-33l67 100h66zM479 14c0 -10 -5 -14 -20 -14h-128c-17 0 -17 9 -17 27c-26 -26 -53 -42 -101 -42c-85 0 -120 60 -120 140v183c0 36 0 73 -22 94h-50c-15 0 -20 4 -20 14s5 14 20 14h127c8 0 17 0 17 -17v-299c0 -80 22 -105 53 -105
c43 0 68 23 96 55v223c0 72 -1 100 -27 115h-43c-15 0 -21 4 -21 14s8 14 21 14h214c13 0 21 -4 21 -14s-6 -14 -21 -14h-45c-26 -15 -27 -43 -27 -115v-159c0 -38 0 -78 23 -100h50c15 0 20 -4 20 -14z" />
    <glyph glyph-name="udieresis" unicode="&#xfc;" 
d="M341 541c0 -24 -19 -43 -43 -43s-43 19 -43 43s19 43 43 43s43 -19 43 -43zM205 541c0 -24 -19 -43 -43 -43s-43 19 -43 43s19 43 43 43s43 -19 43 -43zM479 14c0 -10 -5 -14 -20 -14h-128c-17 0 -17 9 -17 27c-26 -26 -53 -42 -101 -42c-85 0 -120 60 -120 140v183
c0 36 0 73 -22 94h-50c-15 0 -20 4 -20 14s5 14 20 14h127c8 0 17 0 17 -17v-299c0 -80 22 -105 53 -105c43 0 68 23 96 55v223c0 72 -1 100 -27 115h-43c-15 0 -21 4 -21 14s8 14 21 14h214c13 0 21 -4 21 -14s-6 -14 -21 -14h-45c-26 -15 -27 -43 -27 -115v-159
c0 -38 0 -78 23 -100h50c15 0 20 -4 20 -14z" />
    <glyph glyph-name="ugrave" unicode="&#xf9;" 
d="M281 490h-33l-93 100h61zM479 14c0 -10 -5 -14 -20 -14h-128c-17 0 -17 9 -17 27c-26 -26 -53 -42 -101 -42c-85 0 -120 60 -120 140v183c0 36 0 73 -22 94h-50c-15 0 -20 4 -20 14s5 14 20 14h127c8 0 17 0 17 -17v-299c0 -80 22 -105 53 -105c43 0 68 23 96 55v223
c0 72 -1 100 -27 115h-43c-15 0 -21 4 -21 14s8 14 21 14h214c13 0 21 -4 21 -14s-6 -14 -21 -14h-45c-26 -15 -27 -43 -27 -115v-159c0 -38 0 -78 23 -100h50c15 0 20 -4 20 -14z" />
    <glyph glyph-name="yacute" unicode="&#xfd;" horiz-adv-x="481" 
d="M315 590l-93 -100h-33l65 100h61zM451 416c0 -8 -5 -14 -21 -14h-31c-20 -27 -31 -41 -55 -114l-124 -381c-38 -116 -104 -277 -257 -277c-59 0 -118 34 -118 92c0 21 15 42 41 42c18 0 37 -16 37 -36c0 -22 -20 -30 -33 -36c0 -24 32 -38 77 -38c106 0 176 94 212 206
l50 155l-119 290c-23 56 -37 79 -51 97h-44c-16 0 -21 6 -21 14s5 14 21 14h176c16 0 21 -6 21 -14s-5 -14 -21 -14h-23c-4 -2 -8 -8 -8 -16c0 -10 8 -42 17 -64l86 -205l61 187c10 29 15 50 15 60c0 18 -13 32 -20 38h-22c-16 0 -21 6 -21 14s5 14 21 14h133
c16 0 21 -6 21 -14z" />
    <glyph glyph-name="ydieresis" unicode="&#xff;" horiz-adv-x="481" 
d="M343 541c0 -24 -19 -43 -43 -43s-43 19 -43 43s19 43 43 43s43 -19 43 -43zM207 541c0 -24 -19 -43 -43 -43s-43 19 -43 43s19 43 43 43s43 -19 43 -43zM451 416c0 -8 -5 -14 -21 -14h-31c-20 -27 -31 -41 -55 -114l-124 -381c-38 -116 -104 -277 -257 -277
c-59 0 -118 34 -118 92c0 21 15 42 41 42c18 0 37 -16 37 -36c0 -22 -20 -30 -33 -36c0 -24 32 -38 77 -38c106 0 176 94 212 206l50 155l-119 290c-23 56 -37 79 -51 97h-44c-16 0 -21 6 -21 14s5 14 21 14h176c16 0 21 -6 21 -14s-5 -14 -21 -14h-23c-4 -2 -8 -8 -8 -16
c0 -10 8 -42 17 -64l86 -205l61 187c10 29 15 50 15 60c0 18 -13 32 -20 38h-22c-16 0 -21 6 -21 14s5 14 21 14h133c16 0 21 -6 21 -14z" />
    <glyph glyph-name="zcaron" unicode="&#x17e;" horiz-adv-x="463" 
d="M334 590l-67 -100h-66l-67 100h33l67 -67l67 67h33zM410 19c0 -15 -9 -19 -24 -19h-318c-10 0 -26 1 -26 10c0 8 14 28 22 41l226 351h-135c-50 -24 -60 -81 -76 -81c-6 0 -7 5 -7 21v70c0 14 8 18 21 18h268c11 0 19 -3 19 -10c0 -5 -3 -12 -6 -17l-241 -375h188
c56 36 62 92 79 92c7 0 10 -5 10 -18v-83z" />
    <glyph glyph-name="onethird" unicode="&#x2153;" horiz-adv-x="852" 
d="M749 294c0 -49 -62 -90 -130 -90c-11 0 -20 3 -20 11c0 7 6 9 14 9c18 1 37 -1 54 11c20 14 25 40 25 60c0 21 -3 47 -25 62c-14 10 -34 14 -56 14c-60 0 -102 -29 -102 -64c0 -8 0 -13 6 -16c0 2 -1 3 -1 4c0 14 12 24 28 24c18 0 32 -12 32 -28c0 -19 -18 -32 -39 -32
c-27 0 -49 20 -49 48c0 48 55 83 124 83c77 0 139 -37 139 -96zM585 705l-386 -720h-42l386 720h42zM764 100c0 -63 -69 -115 -151 -115c-76 0 -139 45 -139 100c0 28 18 48 47 48c21 0 37 -12 37 -30c0 -16 -15 -29 -31 -29c-11 0 -18 3 -28 12c-1 -4 -2 -6 -2 -8
c0 -13 10 -30 24 -41c22 -18 55 -29 85 -29c17 0 39 2 52 9c29 17 46 53 46 86c0 63 -46 88 -46 98c0 4 5 5 8 5c10 0 26 -7 42 -17c37 -22 56 -52 56 -89zM232 320c0 -8 -5 -12 -14 -12h-118c-7 0 -12 4 -12 11c0 8 5 11 12 11h19c8 9 11 14 13 22c0 6 1 10 1 33v259
c0 17 -1 23 -8 32h-21c-9 0 -16 2 -16 10c0 7 6 9 14 9h79c9 0 9 -5 9 -19v-290c0 -38 2 -45 16 -56h14c7 0 11 -3 11 -10h1z" />
    <glyph glyph-name="one.superior" unicode="&#xb9;" horiz-adv-x="259" 
d="M185 320c0 -8 -5 -12 -14 -12h-118c-7 0 -12 4 -12 11c0 8 5 11 12 11h19c8 9 11 14 13 22c0 6 1 10 1 33v259c0 17 -1 23 -8 32h-21c-9 0 -16 2 -16 10c0 7 6 9 14 9h79c9 0 9 -5 9 -19v-290c0 -38 2 -45 16 -56h14c7 0 12 -3 12 -10z" />
    <glyph glyph-name="two.superior" unicode="&#xb2;" horiz-adv-x="389" 
d="M335 602c0 -31 -27 -64 -64 -81l-59 -27c-33 -15 -60 -34 -82 -58c-21 -23 -28 -37 -37 -76h167c11 0 17 6 24 10c3 2 7 5 12 5c6 0 10 -3 10 -9s-7 -19 -9 -24c-6 -14 -13 -24 -26 -33h-196c-9 0 -13 6 -13 15c0 69 36 127 107 173c40 27 99 58 99 114
c0 20 -6 40 -27 58c-14 12 -34 14 -54 14c-54 0 -103 -32 -103 -63c0 -11 2 -15 6 -18c-1 2 -1 3 -1 4c0 13 12 23 26 23c15 0 28 -12 28 -27c0 -17 -16 -29 -36 -29c-27 0 -47 18 -47 44c0 49 60 88 131 88c75 0 144 -46 144 -103z" />
    <glyph glyph-name="three.superior" unicode="&#xb3;" horiz-adv-x="389" 
d="M311 609c0 -49 -62 -90 -130 -90c-11 0 -20 3 -20 11c0 7 6 9 14 9c18 1 37 -1 54 11c20 14 25 40 25 60c0 21 -3 47 -25 62c-14 10 -34 14 -56 14c-60 0 -102 -29 -102 -64c0 -8 0 -13 6 -16c0 2 -1 3 -1 4c0 14 12 24 28 24c18 0 32 -12 32 -28c0 -19 -18 -32 -39 -32
c-27 0 -49 20 -49 48c0 48 55 83 124 83c77 0 139 -37 139 -96zM326 415c0 -63 -69 -115 -151 -115c-76 0 -139 45 -139 100c0 28 18 48 47 48c21 0 37 -12 37 -30c0 -16 -15 -29 -31 -29c-11 0 -18 3 -28 12c-1 -4 -2 -6 -2 -8c0 -13 10 -30 24 -41c22 -18 55 -29 85 -29
c17 0 39 2 52 9c29 17 46 53 46 86c0 63 -46 88 -46 98c0 4 5 5 8 5c10 0 26 -7 42 -17c37 -22 56 -52 56 -89z" />
    <glyph glyph-name="Delta" unicode="&#x2206;" horiz-adv-x="558" 
d="M541 0h-522l240 712h51zM451 40l-185 551l-195 -551h380z" />
    <glyph glyph-name="Omega" unicode="&#x2126;" horiz-adv-x="677" 
d="M634 0h-233v116c101 49 142 177 142 278c0 166 -67 285 -203 285c-142 0 -208 -125 -208 -286c0 -116 53 -245 151 -281v-112h-240v134h23c0 -45 4 -76 59 -76h120v31c-103 39 -193 152 -193 301c0 205 121 322 288 322c177 0 287 -146 287 -313
c0 -112 -59 -253 -189 -307v-34h114c56 0 59 31 59 76h23v-134z" />
    <glyph glyph-name="uni03BC" unicode="&#x3bc;" 
d="M488 419c0 -9 -6 -14 -18 -14h-53c-20 -36 -21 -61 -21 -100v-22v-171c0 -40 7 -69 21 -84h47c18 0 21 -2 21 -13c0 -13 -2 -15 -15 -15h-118c-24 0 -27 6 -27 28c-36 -20 -70 -39 -112 -39c-14 0 -21 1 -38 6v-250c0 -18 0 -25 -21 -25h-99c-17 0 -24 3 -24 14
c0 12 10 14 24 14h8c39 10 40 45 40 104v442c0 38 0 93 -22 111h-58c-7 0 -13 7 -13 14c0 9 5 14 13 14h131c15 0 21 -3 21 -19v-326c0 -44 31 -71 50 -71c38 0 59 11 100 47v219c0 69 -1 95 -23 122h-48c-17 0 -23 4 -23 15c0 8 5 13 17 13h222c14 0 18 -3 18 -14z" />
    <glyph glyph-name="pi" unicode="&#x3c0;" horiz-adv-x="448" 
d="M422 89c-11 -61 -36 -101 -71 -101c-21 0 -38 11 -49 31c-16 28 -17 77 -17 123v276h-108v-202c0 -93 -9 -158 -30 -193c-14 -21 -34 -35 -57 -35c-16 0 -30 13 -30 29c0 19 13 30 32 36c45 12 49 84 49 184v181h-25c-34 0 -55 -17 -64 -66l-22 5c2 78 37 125 98 125h283
v-64h-91v-247c0 -48 4 -80 12 -99c6 -19 18 -28 29 -28c22 0 35 27 45 57z" />
    <glyph glyph-name="Euro" unicode="&#x20ac;" 
d="M475 153c0 -90 -53 -168 -180 -168c-141 0 -201 110 -214 261h-37c-28 0 -30 5 -30 17c0 10 3 16 19 16h46c0 8 -1 15 -1 23c0 15 1 24 2 39h-36c-28 0 -30 2 -30 14c0 10 3 19 19 19h49c18 147 94 246 223 246c88 0 111 -36 141 -36c4 0 13 0 13 -9v-88
c0 -21 -2 -27 -9 -27c-14 0 -31 71 -67 105c-15 14 -38 26 -78 26c-32 0 -63 -9 -84 -26c-27 -22 -57 -73 -65 -191h197c17 0 21 -4 21 -17c0 -14 -5 -16 -19 -16h-200c-1 -14 -1 -23 -1 -39v-23h181c18 0 21 -4 21 -16c0 -13 -5 -17 -19 -17h-181c6 -131 37 -180 65 -206
c21 -19 52 -26 84 -26c91 0 142 52 142 139c0 22 0 46 14 46c12 0 14 -16 14 -46z" />
    <glyph glyph-name="afii61289" unicode="&#x2113;" horiz-adv-x="374" 
d="M359 103c-26 -68 -69 -115 -133 -115c-35 0 -60 10 -81 30c-25 25 -36 66 -36 111v90c-14 -17 -46 -50 -60 -66l-22 25c20 21 60 63 81 92v242c0 117 47 200 121 200c61 0 85 -46 85 -100c0 -73 -36 -161 -74 -228c-18 -29 -44 -71 -56 -85v-174c0 -64 27 -95 59 -95
c39 0 67 42 85 87zM280 611c0 35 -10 67 -46 67c-28 0 -50 -37 -50 -128v-191c4 7 21 33 33 57c40 69 63 143 63 195z" />
    <glyph glyph-name="estimated" unicode="&#x212e;" horiz-adv-x="629" 
d="M593 281h-433v-203c41 -42 93 -63 154 -63c94 0 167 51 215 132l27 -16c-59 -88 -126 -143 -242 -143c-169 0 -274 131 -274 293c0 163 103 293 274 293c175 0 274 -129 279 -293zM469 309v174c-42 41 -96 65 -156 65s-112 -22 -153 -64v-175h309z" />
    <glyph glyph-name="partialdiff" unicode="&#x2202;" horiz-adv-x="474" 
d="M444 472c0 -77 -18 -190 -50 -272c-47 -119 -105 -213 -207 -213c-105 0 -157 95 -157 200c0 150 86 279 222 279c81 0 127 -54 141 -92h2c3 34 4 61 4 83c0 92 -33 205 -136 205c-66 0 -110 -32 -146 -77l-18 18c36 50 91 115 186 115c119 0 159 -104 159 -246zM388 324
c-13 42 -49 106 -124 106c-86 0 -160 -109 -160 -257c0 -100 48 -149 105 -149c94 0 154 166 179 300z" />
    <glyph glyph-name="product" unicode="&#x220f;" horiz-adv-x="641" 
d="M604 -131h-211v24h18c46 0 50 33 50 74l1 697h-284v-697c0 -41 4 -74 50 -74h17v-24h-209v24h17c46 0 50 33 50 74v635c0 43 -3 74 -50 74h-17v24h568v-24h-16c-47 0 -51 -31 -51 -74v-635c0 -42 5 -74 50 -74h17v-24z" />
    <glyph glyph-name="summation" unicode="&#x2211;" horiz-adv-x="512" 
d="M493 14l-12 -145h-473l-1 27l244 387l-236 392v25h451l7 -129h-21c-5 66 -14 92 -73 92h-280l213 -345l-243 -384h321c62 0 72 20 81 84z" />
    <glyph glyph-name="uni2219" unicode="&#x2219;" horiz-adv-x="204" 
d="M146 333c0 -24 -19 -43 -43 -43s-43 19 -43 43s19 43 43 43s43 -19 43 -43z" />
    <glyph glyph-name="radical" unicode="&#x221a;" horiz-adv-x="405" 
d="M294 728l-78 -740h-47l-101 341l-48 -32l-17 27l98 65l90 -315h2l69 654h32z" />
    <glyph glyph-name="infinity" unicode="&#x221e;" horiz-adv-x="679" 
d="M492 138c-78 0 -117 47 -148 103h-2c-30 -52 -75 -103 -150 -103c-77 0 -135 59 -135 142c0 85 54 144 133 144c78 0 120 -55 143 -100h1c35 55 75 100 154 100c74 0 133 -57 133 -141c0 -85 -58 -145 -129 -145zM493 386c-68 0 -93 -49 -131 -112c29 -60 67 -98 129 -98
c65 0 96 54 96 104c0 58 -29 106 -94 106zM191 386h1c-61 0 -102 -42 -102 -105s37 -105 98 -105c65 0 104 74 127 117c-20 43 -60 93 -124 93z" />
    <glyph glyph-name="integral" unicode="&#x222b;" horiz-adv-x="247" 
d="M232 701c0 -12 -6 -29 -22 -29c-12 0 -16 4 -26 12c-8 5 -14 11 -26 11c-15 0 -22 -14 -22 -42c-2 -33 6 -72 11 -148c4 -58 9 -156 9 -250c0 -84 -1 -161 -5 -224c-4 -60 -8 -128 -19 -168c-12 -43 -28 -74 -69 -74c-26 0 -54 17 -54 45c0 17 10 30 28 30
c9 0 14 -4 22 -13c5 -6 15 -9 21 -9c10 0 23 3 25 69c2 25 -6 79 -11 121c-4 66 -7 156 -7 222s1 133 4 207c2 75 7 171 14 212c11 52 36 75 68 75c35 0 59 -23 59 -47z" />
    <glyph glyph-name="approxequal" unicode="&#x2248;" 
d="M478 422c-16 -60 -54 -107 -120 -107c-39 0 -74 16 -114 39c-25 14 -56 26 -79 26c-47 0 -67 -25 -87 -69l-32 14c12 46 42 108 122 108c40 0 76 -18 106 -35c36 -22 63 -30 89 -30c40 0 62 25 82 69zM478 235c-16 -60 -54 -107 -120 -107c-39 0 -74 16 -114 39
c-25 14 -56 26 -79 26c-47 0 -67 -25 -87 -70l-32 15c12 46 42 108 122 108c40 0 76 -18 106 -36c36 -21 63 -30 89 -30c40 0 62 26 82 70z" />
    <glyph glyph-name="notequal" unicode="&#x2260;" horiz-adv-x="515" 
d="M467 163h-239l-69 -156h-49l68 156h-126v48h148l63 138h-211v48h232l72 162h50l-72 -162h133v-48h-154l-64 -138h218v-48z" />
    <glyph glyph-name="lessequal" unicode="&#x2264;" 
d="M467 0h-415v48h415v-48zM467 101l-415 195v41l415 194v-53l-352 -161l352 -162v-54z" />
    <glyph glyph-name="greaterequal" unicode="&#x2265;" 
d="M467 0h-415v48h415v-48zM467 295l-415 -194v53l352 161l-352 162v54l415 -194v-42z" />
    <glyph glyph-name="lozenge" unicode="&#x25ca;" horiz-adv-x="380" 
d="M367 349l-157 -361h-43l-153 361l153 363h43zM324 349l-135 312l-132 -312l132 -311z" />
    <glyph glyph-name="uni00A0" unicode="&#xa0;" horiz-adv-x="204" 
 />
    <glyph glyph-name="uni00AD" unicode="&#xad;" horiz-adv-x="278" 
d="M221 200h-164v45h164v-45z" />
    <glyph glyph-name="uni02C9" unicode="&#x2c9;" horiz-adv-x="288" 
d="M237 523h-185v33h185v-33z" />
    <glyph glyph-name="A.alt" unicode="&#xe000;" horiz-adv-x="1019" 
d="M1136 711c0 -8 -5 -16 -10 -22l-14 -16c-4 -4 -8 -9 -14 -9c-20 0 -46 79 -124 79c-35 0 -66 -21 -83 -40v-555c0 -75 0 -88 22 -120h57c10 0 18 -2 18 -14c0 -13 -9 -14 -18 -14h-235c-7 0 -16 1 -16 14c0 9 8 14 16 14h52c19 20 26 32 26 83v189h-236
c-70 -95 -255 -360 -447 -360c-93 0 -152 59 -152 75c0 5 4 9 8 13l23 20c5 5 13 13 20 13c15 0 46 -52 133 -52c309 0 608 786 834 786c79 0 140 -58 140 -84zM813 328v293c-62 -76 -169 -223 -216 -293h216z" />
    <glyph glyph-name="orn.001" unicode="&#xe007;" horiz-adv-x="1000" 
d="M900 215c0 -87 -87 -154 -174 -154c-195 0 -239 353 -435 353c-87 0 -159 -86 -159 -186c0 -86 58 -139 109 -139c62 0 73 34 73 70c-11 -6 -22 -11 -33 -11c-18 0 -31 15 -31 33c0 24 19 43 41 43c38 0 60 -27 60 -63c0 -56 -50 -100 -110 -100c-97 0 -141 100 -141 167
c0 121 97 230 227 230c234 0 259 -353 435 -353c59 0 106 50 106 110c0 37 -9 71 -45 71c-22 0 -28 -40 -38 -40c-5 0 -5 12 -5 19c0 36 18 65 45 65c57 0 75 -57 75 -115z" />
    <glyph glyph-name="orn.002" unicode="&#xe008;" horiz-adv-x="1000" 
d="M900 228c0 -67 -44 -167 -141 -167c-60 0 -110 44 -110 100c0 36 22 63 60 63c22 0 41 -19 41 -41c0 -20 -13 -35 -31 -35c-11 0 -22 5 -33 11c0 -36 11 -70 73 -70c51 0 109 53 109 139c0 100 -72 186 -159 186c-196 0 -240 -353 -435 -353c-87 0 -174 67 -174 154
c0 58 18 115 75 115c27 0 45 -29 45 -65c0 -7 0 -19 -5 -19c-10 0 -16 40 -38 40c-36 0 -45 -34 -45 -71c0 -60 47 -110 106 -110c176 0 201 353 435 353c130 0 227 -109 227 -230z" />
    <glyph glyph-name="ampersand.alt" unicode="&#xe003;" horiz-adv-x="722" 
d="M656 341c0 -98 -114 -75 -114 -106c0 -18 8 -36 8 -54c0 -143 -125 -201 -243 -201c-158 0 -244 89 -244 204c0 162 159 205 244 220c-77 10 -156 44 -156 153c0 98 74 148 168 148c97 0 159 -68 159 -148c0 -58 -40 -86 -44 -86c-5 0 -7 4 -7 9c0 12 16 11 16 70
c0 41 -19 71 -45 99c-13 14 -46 28 -79 28c-29 0 -57 -5 -79 -28c-24 -20 -35 -44 -35 -92c0 -148 171 -128 171 -148c0 -8 -23 -9 -40 -13c-75 -17 -187 -66 -187 -212c0 -51 22 -113 65 -148c18 -15 59 -28 93 -28c37 0 88 12 107 28c40 25 60 62 60 145
c0 68 -45 102 -90 102c-32 0 -40 -15 -52 -15c-3 0 -5 1 -5 4c0 4 27 48 112 48c69 0 83 -20 127 -20c75 0 74 50 83 50c5 0 7 -5 7 -9z" />
    <glyph glyph-name="s_t" unicode="&#xfb06;" horiz-adv-x="426" 
d="M408 383c0 -16 -21 -56 -58 -56c-62 0 -74 51 -74 99v158c0 37 -2 47 -13 59c14 12 44 47 54 65c1 1 4 5 7 5c5 0 6 -7 6 -11v-97h32c6 0 12 -5 12 -11c0 -8 -7 -13 -14 -13h-30v-149c0 -41 0 -81 30 -81c15 0 23 13 28 24c4 9 7 14 13 14c4 0 7 -2 7 -6zM226 419
c0 -62 -56 -92 -108 -92c-28 0 -43 13 -61 13c-20 0 -23 -14 -31 -14c-5 0 -7 5 -7 10v60c0 6 2 13 8 13c13 0 19 -58 91 -58c37 0 62 12 62 46c0 83 -165 39 -165 141c0 59 48 77 98 77c20 0 39 -8 59 -8c10 0 25 11 28 11c4 0 7 -4 7 -12v-48c0 -7 -2 -12 -7 -12
c-17 0 -24 45 -87 45c-33 0 -52 -13 -52 -29c0 -69 165 -24 165 -143z" />
    <glyph glyph-name="uni2015" unicode="&#x2015;" horiz-adv-x="1000" 
d="M1000 -25h-1000v25h1000v-25z" />
    <glyph glyph-name="uni2215" unicode="&#x2215;" horiz-adv-x="195" 
d="M301 705l-386 -720h-42l386 720h42z" />
    <glyph glyph-name="uni03A9" unicode="&#x3a9;" horiz-adv-x="677" 
d="M634 0h-233v116c101 49 142 177 142 278c0 166 -67 285 -203 285c-142 0 -208 -125 -208 -286c0 -116 53 -245 151 -281v-112h-240v134h23c0 -45 4 -76 59 -76h120v31c-103 39 -193 152 -193 301c0 205 121 322 288 322c177 0 287 -146 287 -313
c0 -112 -59 -253 -189 -307v-34h114c56 0 59 31 59 76h23v-134z" />
    <glyph glyph-name="uni2105" unicode="&#x2105;" horiz-adv-x="778" 
d="M607 705l-387 -725h-36l386 725h37zM715 160c0 -100 -51 -180 -137 -180s-137 80 -137 180s51 180 137 180s137 -80 137 -180zM336 459c0 -76 -58 -114 -131 -114c-96 0 -147 80 -147 180s51 180 147 180c39 0 60 -11 68 -11c6 0 27 11 34 11c5 0 5 -7 5 -12v-88
c0 -5 -1 -12 -5 -12c-10 0 -21 35 -48 64c-15 16 -36 24 -54 24c-24 0 -39 -11 -51 -24c-14 -16 -34 -63 -34 -132s20 -116 34 -132c12 -14 30 -24 51 -24c40 0 57 9 75 24s27 37 27 69c0 21 -12 56 -12 59c0 4 3 6 7 6s34 -34 34 -68zM653 160c0 77 -15 122 -29 138
c-12 14 -30 18 -46 18s-34 -4 -46 -18c-14 -16 -29 -63 -29 -138s15 -122 29 -138c12 -14 30 -18 46 -18s34 4 46 18c14 16 29 61 29 138z" />
    <glyph glyph-name="r.period" unicode="&#xe009;" horiz-adv-x="556" 
d="M490 283c0 -24 -19 -43 -43 -43s-43 19 -43 43s19 43 43 43s43 -19 43 -43zM393 619c0 -39 -22 -70 -59 -70c-27 0 -48 22 -48 45c0 25 17 46 45 46c8 0 14 -1 22 -6c0 22 -12 42 -46 42c-55 0 -89 -42 -112 -67v-222c0 -59 1 -94 40 -104h32c12 0 20 -4 20 -15
c0 -9 -8 -13 -20 -13h-219c-12 0 -18 4 -18 13c0 11 6 15 18 15h35c39 10 40 45 40 104v166c0 59 -1 94 -40 104h-29c-14 0 -24 2 -24 14c0 11 7 14 24 14h125c10 0 16 -4 16 -15v-24c25 27 64 54 112 54c47 0 86 -28 86 -81z" />
    <glyph glyph-name="rs.period" unicode="&#xe00b;" horiz-adv-x="963" 
d="M898 283c0 -24 -19 -43 -43 -43s-43 19 -43 43s19 43 43 43s43 -19 43 -43zM748 381c0 -88 -62 -141 -149 -141c-51 0 -86 21 -99 21c-17 0 -35 -21 -42 -21c-4 0 -7 5 -7 10v111c0 11 3 16 8 16s10 -8 15 -16c13 -24 27 -48 42 -63c15 -19 54 -34 83 -34
c19 0 41 10 55 24c11 9 29 32 29 67c0 50 -34 75 -73 90c-24 14 -52 19 -69 29c-59 22 -87 53 -87 111c0 73 46 115 131 115c35 0 67 -17 77 -17c19 0 38 17 49 17c5 0 12 -4 12 -10v-85c0 -7 -5 -14 -11 -14s-9 5 -13 13c-8 15 -19 34 -33 44c-16 14 -45 28 -81 28
c-19 0 -42 -7 -54 -21c-11 -9 -23 -20 -23 -48c0 -33 19 -52 49 -60c24 -10 50 -21 75 -30c76 -20 116 -74 116 -136zM393 619c0 -39 -22 -70 -59 -70c-27 0 -48 22 -48 45c0 6 4 46 45 46c8 0 14 -1 22 -6c0 22 -6 42 -44 42c-56 0 -91 -37 -114 -62v-227
c0 -59 1 -94 40 -104h32c12 0 20 -4 20 -15c0 -9 -8 -13 -20 -13h-219c-12 0 -18 4 -18 13c0 11 6 15 18 15h35c39 10 40 45 40 104v166c0 59 -1 94 -40 104h-29c-14 0 -24 2 -24 14c0 11 7 14 24 14h120c21 0 21 -5 21 -29c27 17 64 44 112 44c41 0 86 -28 86 -81z" />
    <glyph glyph-name="s.period" unicode="&#xe00c;" horiz-adv-x="555" 
d="M490 283c0 -24 -19 -43 -43 -43s-43 19 -43 43s19 43 43 43s43 -19 43 -43zM336 381c0 -88 -62 -141 -149 -141c-51 0 -86 21 -99 21c-17 0 -35 -21 -42 -21c-4 0 -7 5 -7 10v111c0 11 3 16 8 16s10 -8 15 -16c13 -24 27 -48 42 -63c15 -19 54 -34 83 -34
c19 0 41 10 55 24c11 9 29 32 29 67c0 50 -34 75 -73 90c-24 14 -52 19 -69 29c-59 22 -87 53 -87 111c0 73 46 115 131 115c35 0 67 -17 77 -17c19 0 38 17 49 17c5 0 12 -4 12 -10v-85c0 -7 -5 -14 -11 -14s-9 5 -13 13c-8 15 -19 34 -33 44c-16 14 -45 28 -81 28
c-19 0 -42 -7 -54 -21c-11 -9 -23 -20 -23 -48c0 -33 19 -52 49 -60c24 -10 50 -21 75 -30c76 -20 116 -74 116 -136z" />
    <glyph glyph-name="Dquote" unicode="&#xe001;" horiz-adv-x="796" 
d="M777 651c0 -45 -38 -89 -68 -89c-6 0 -9 6 -9 11c0 10 31 9 31 42c-19 3 -47 18 -47 45c0 25 19 45 47 45c23 0 46 -23 46 -54zM639 343c0 -221 -127 -343 -338 -343h-248c-15 0 -21 6 -21 14c0 9 6 14 21 14h51c24 27 24 55 24 124v381c0 69 0 97 -24 124h-51
c-15 0 -21 5 -21 14c0 8 6 14 21 14h248c211 0 338 -122 338 -342zM553 343c0 160 -85 264 -121 283c-35 18 -70 31 -161 31h-65v-629h65c91 0 126 13 161 32c36 19 121 123 121 283z" />
    <glyph glyph-name="Oquote" unicode="&#xe002;" horiz-adv-x="759" 
d="M730 651c0 -45 -38 -89 -68 -89c-6 0 -9 6 -9 11c0 10 31 9 31 42c-19 3 -47 18 -47 45c0 25 19 45 47 45c23 0 46 -23 46 -54zM578 342c0 -198 -106 -362 -263 -362c-160 0 -263 164 -263 362c0 199 102 363 263 363c157 0 263 -164 263 -363zM492 342
c0 191 -55 277 -82 301c-24 21 -58 34 -95 34s-71 -13 -95 -34c-27 -24 -82 -110 -82 -301c0 -190 55 -276 82 -300c24 -21 58 -34 95 -34s71 13 95 34c27 24 82 110 82 300z" />
    <glyph glyph-name="capostraphe" unicode="&#xe005;" 
d="M150 651c0 -45 -38 -89 -68 -89c-6 0 -9 6 -9 11c0 10 31 9 31 42c-19 3 -47 18 -47 45c0 25 19 45 47 45c23 0 46 -23 46 -54zM476 131c0 -76 -53 -146 -166 -146c-94 0 -180 87 -180 230s86 230 180 230c61 0 78 -20 95 -20c18 0 26 15 40 15c4 0 8 -3 8 -6v-109
c0 -23 -2 -31 -9 -31c-4 0 -8 7 -13 19c-12 27 -38 65 -57 87c-14 16 -38 21 -64 21c-16 0 -39 -5 -53 -21c-19 -21 -51 -85 -51 -185c0 -97 32 -161 51 -182c14 -16 37 -24 53 -24c34 0 55 6 75 21c31 23 55 64 55 105c0 43 -15 69 -15 76c0 6 4 8 7 8c16 0 44 -48 44 -88z
" />
    <glyph glyph-name="sapostraphe" unicode="&#xe00d;" 
d="M150 651c0 -45 -38 -89 -68 -89c-6 0 -9 6 -9 11c0 10 31 9 31 42c-19 3 -47 18 -47 45c0 25 19 45 47 45c23 0 46 -23 46 -54zM481 126c0 -88 -62 -141 -149 -141c-51 0 -86 21 -99 21c-17 0 -35 -21 -42 -21c-4 0 -7 5 -7 10v111c0 11 3 16 8 16s10 -8 15 -16
c13 -24 27 -48 42 -63c15 -19 54 -34 83 -34c19 0 41 10 55 24c11 9 29 32 29 67c0 50 -34 75 -73 90c-24 14 -52 19 -69 29c-59 22 -87 53 -87 111c0 73 46 115 131 115c35 0 67 -17 77 -17c19 0 38 17 49 17c5 0 12 -4 12 -10v-85c0 -7 -5 -14 -11 -14s-9 5 -13 13
c-8 15 -19 34 -33 44c-16 14 -45 28 -81 28c-19 0 -42 -7 -54 -21c-11 -9 -22 -20 -22 -48c0 -33 19 -52 48 -60c24 -10 50 -21 75 -30c76 -20 116 -74 116 -136z" />
    <glyph glyph-name="c.superior" unicode="&#xe004;" horiz-adv-x="444" 
d="M391 386c0 -76 -53 -146 -166 -146c-94 0 -180 87 -180 230s86 230 180 230c61 0 78 -20 95 -20c18 0 26 15 40 15c4 0 8 -3 8 -6v-109c0 -23 -2 -31 -9 -31c-4 0 -8 7 -13 19c-12 27 -38 65 -57 87c-14 16 -38 21 -64 21c-16 0 -39 -5 -53 -21c-19 -21 -51 -85 -51 -185
c0 -97 32 -161 51 -182c14 -16 37 -24 53 -24c34 0 55 6 75 21c31 23 55 64 55 105c0 43 -15 69 -15 76c0 6 4 8 7 8c16 0 44 -48 44 -88z" />
    <glyph glyph-name="rd" unicode="&#xe00a;" horiz-adv-x="556" 
d="M545 350c0 -7 -8 -13 -16 -13h-84c-5 0 -9 4 -9 9v27c-7 -10 -27 -46 -64 -46c-79 0 -107 68 -107 141c0 80 35 147 107 147c37 0 54 -19 64 -29v79c0 34 -3 48 -8 71h-30c-7 0 -14 3 -14 11c0 9 9 13 16 13h67c9 0 23 -1 23 -10v-306c0 -46 3 -65 9 -83h25
c9 0 21 -3 21 -11zM239 553c0 -20 -15 -42 -35 -42c-24 0 -37 17 -37 37c0 14 12 26 27 26c6 0 12 -2 18 -4v6c0 11 -15 15 -26 15c-33 0 -54 -18 -66 -30v-129c0 -40 5 -61 8 -71h31c8 0 15 -6 15 -12c0 -7 -7 -12 -14 -12h-133c-8 0 -16 4 -16 11s8 13 16 13h29
c5 17 10 37 10 77v70c0 28 -6 59 -9 73h-30c-7 0 -15 3 -15 10c0 9 6 14 13 14h76c7 0 12 -10 14 -17c12 7 41 27 70 27c32 0 54 -24 54 -62zM436 427v124c-9 11 -30 40 -64 40c-41 0 -53 -65 -53 -123c0 -77 10 -117 53 -117c40 0 55 52 64 76z" />
    <glyph glyph-name="nd" unicode="&#xe006;" horiz-adv-x="630" 
d="M615 350c0 -7 -8 -13 -16 -13h-84c-5 0 -9 4 -9 9v27c-7 -10 -27 -46 -64 -46c-79 0 -107 68 -107 141c0 80 35 147 107 147c37 0 54 -19 64 -29v79c0 34 -3 48 -8 71h-30c-7 0 -14 3 -14 11c0 9 9 13 16 13h67c9 0 23 -1 23 -10v-306c0 -46 3 -65 9 -83h25
c9 0 21 -3 21 -11zM325 348c0 -6 -7 -11 -14 -11h-80c-10 0 -16 10 -16 20v161c0 29 0 73 -29 73c-25 0 -40 -17 -64 -44v-114c0 -29 0 -52 9 -72h32c7 0 14 -6 14 -12c0 -7 -7 -12 -14 -12h-132c-8 0 -14 6 -14 12c0 8 10 12 18 12h24c6 20 9 43 9 72v78c0 35 -3 50 -7 70
h-31c-7 0 -13 4 -13 12s8 12 15 12h76c9 0 14 -4 14 -11v-21c18 20 44 42 84 42c63 0 63 -52 63 -97v-85c0 -29 0 -52 9 -72h33c7 0 14 -6 14 -13zM506 427v124c-9 11 -30 40 -64 40c-41 0 -53 -65 -53 -123c0 -77 10 -117 53 -117c40 0 55 52 64 76z" />
    <glyph glyph-name="th" unicode="&#xe00e;" 
d="M500 349c0 -6 -5 -12 -12 -12h-75c-9 0 -16 9 -16 17v182c0 15 -2 55 -30 55c-35 0 -61 -33 -72 -47v-106c0 -35 5 -56 9 -77h30c7 0 14 -5 14 -12c0 -6 -5 -12 -11 -12h-135c-8 0 -15 6 -15 13s8 11 15 11h30c6 21 9 42 9 77v228c0 36 -3 51 -10 70h-31
c-6 0 -12 5 -12 11c0 10 8 13 15 13h81c5 0 11 -2 11 -7v-173c8 7 37 35 75 35c52 0 81 -32 81 -79v-98c0 -35 4 -56 9 -77h25c8 0 15 -5 15 -12zM161 383c0 -16 -21 -56 -58 -56c-62 0 -74 51 -74 99v151c0 37 -2 47 -13 59c14 12 44 47 54 65c1 1 4 5 7 5c5 0 6 -7 6 -11
v-88h32c6 0 12 -5 12 -11c0 -8 -7 -13 -14 -13h-30v-151c0 -41 0 -81 30 -81c15 0 23 13 28 24c4 9 7 14 13 14c4 0 7 -2 7 -6z" />
    <glyph glyph-name="uni2160" unicode="&#x2160;" horiz-adv-x="333" 
d="M301 14c0 -10 -8 -14 -20 -14h-230c-12 0 -20 4 -20 14s8 14 20 14h40c36 0 36 41 36 74v401c0 33 0 74 -36 74h-40c-12 0 -20 4 -20 14s8 14 20 14h230c12 0 20 -4 20 -14s-8 -14 -20 -14h-40c-36 0 -36 -41 -36 -74v-401c0 -33 0 -74 36 -74h40c12 0 20 -4 20 -14z" />
    <glyph glyph-name="uni2164" unicode="&#x2164;" horiz-adv-x="685" 
d="M650 591c0 -10 -8 -14 -20 -14h-20c-50 0 -77 -93 -93 -136l-164 -441h-17l-174 482c-11 31 -29 95 -61 95h-30c-12 0 -20 4 -20 14s8 14 20 14h193c12 0 20 -4 20 -14s-8 -14 -20 -14h-25c-10 0 -18 -9 -18 -18c0 -10 4 -20 7 -29l146 -404l130 361c4 12 7 23 7 35
c0 28 -11 55 -41 55h-27c-12 0 -20 4 -20 14s8 14 20 14h187c12 0 20 -4 20 -14z" />
    <glyph glyph-name="uni2169" unicode="&#x2169;" horiz-adv-x="611" 
d="M562 14c0 -10 -8 -14 -20 -14h-206c-12 0 -20 4 -20 14s8 14 20 14h45c16 0 18 12 18 26c0 12 -11 35 -20 50l-96 166l-103 -176c-5 -8 -5 -19 -5 -27c0 -16 6 -39 22 -39h25c12 0 20 -4 20 -14s-8 -14 -20 -14h-157c-12 0 -20 4 -20 14s8 14 20 14h14c28 0 78 87 95 115
l93 158l-106 192c-9 17 -33 64 -41 71s-18 13 -28 13h-21c-12 0 -20 4 -20 14s8 14 20 14h193c12 0 20 -4 20 -14s-8 -14 -20 -14h-29c-8 0 -16 -6 -16 -14c0 -11 13 -34 21 -48l72 -130l72 134c3 8 5 16 5 24c0 14 -8 34 -27 34h-15c-12 0 -20 4 -20 14s8 14 20 14h171
c12 0 20 -4 20 -14s-8 -14 -20 -14h-25c-42 0 -70 -54 -93 -95l-72 -128l134 -239c19 -34 48 -87 70 -87h10c12 0 20 -4 20 -14z" />
    </font>
</defs>
</svg>
